<?xml version="1.0" encoding="utf-8" standalone="no"?>
<!DOCTYPE svg PUBLIC "-//W3C//DTD SVG 1.1//EN"
  "http://www.w3.org/Graphics/SVG/1.1/DTD/svg11.dtd">
<!-- Created with matplotlib (http://matplotlib.org/) -->
<svg height="551.939315pt" version="1.1" viewBox="0 0 911.261875 551.939315" width="911.261875pt" xmlns="http://www.w3.org/2000/svg" xmlns:xlink="http://www.w3.org/1999/xlink">
 <defs>
  <style type="text/css">
*{stroke-linecap:butt;stroke-linejoin:round;}
  </style>
 </defs>
 <g id="figure_1">
  <g id="patch_1">
   <path d="M 0 551.939315 
L 911.261875 551.939315 
L 911.261875 -0 
L 0 -0 
z
" style="fill:#ffffff;"/>
  </g>
  <g id="axes_1">
   <g id="patch_2">
    <path d="M 63.561875 328.622078 
L 900.561875 328.622078 
L 900.561875 10.7 
L 63.561875 10.7 
z
" style="fill:#ffffff;"/>
   </g>
   <g id="PolyCollection_1">
    <path clip-path="url(#pc8f92a39cc)" d="M 101.60733 297.183117 
L 101.60733 328.622078 
L 108.341038 328.622078 
L 115.074747 328.622078 
L 121.808456 328.622078 
L 128.542165 328.622078 
L 135.275873 328.622078 
L 142.009582 328.622078 
L 148.743291 328.622078 
L 155.477 328.622078 
L 162.210708 328.622078 
L 168.944417 328.622078 
L 175.678126 328.622078 
L 182.411835 328.622078 
L 189.145544 328.622078 
L 195.879252 328.622078 
L 202.612961 328.622078 
L 209.34667 328.622078 
L 216.080379 328.622078 
L 222.814087 328.622078 
L 229.547796 328.622078 
L 236.281505 328.622078 
L 243.015214 328.622078 
L 249.748922 328.622078 
L 256.482631 328.622078 
L 263.21634 328.622078 
L 269.950049 328.622078 
L 276.683758 328.622078 
L 283.417466 328.622078 
L 290.151175 328.622078 
L 296.884884 328.622078 
L 303.618593 328.622078 
L 310.352301 328.622078 
L 317.08601 328.622078 
L 323.819719 328.622078 
L 330.553428 328.622078 
L 337.287136 328.622078 
L 344.020845 328.622078 
L 350.754554 328.622078 
L 357.488263 328.622078 
L 364.221972 328.622078 
L 370.95568 328.622078 
L 377.689389 328.622078 
L 384.423098 328.622078 
L 391.156807 328.622078 
L 397.890515 328.622078 
L 404.624224 328.622078 
L 411.357933 328.622078 
L 418.091642 328.622078 
L 424.82535 328.622078 
L 431.559059 328.622078 
L 438.292768 328.622078 
L 445.026477 328.622078 
L 451.760186 328.622078 
L 458.493894 328.622078 
L 465.227603 328.622078 
L 471.961312 328.622078 
L 478.695021 328.622078 
L 485.428729 328.622078 
L 492.162438 328.622078 
L 498.896147 328.622078 
L 505.629856 328.622078 
L 512.363564 328.622078 
L 519.097273 328.622078 
L 525.830982 328.622078 
L 532.564691 328.622078 
L 539.2984 328.622078 
L 546.032108 328.622078 
L 552.765817 328.622078 
L 559.499526 328.622078 
L 566.233235 328.622078 
L 572.966943 328.622078 
L 579.700652 328.622078 
L 586.434361 328.622078 
L 593.16807 328.622078 
L 599.901778 328.622078 
L 606.635487 328.622078 
L 613.369196 328.622078 
L 620.102905 328.622078 
L 626.836614 328.622078 
L 633.570322 328.622078 
L 640.304031 328.622078 
L 647.03774 328.622078 
L 653.771449 328.622078 
L 660.505157 328.622078 
L 667.238866 328.622078 
L 673.972575 328.622078 
L 680.706284 328.622078 
L 687.439992 328.622078 
L 694.173701 328.622078 
L 700.90741 328.622078 
L 707.641119 328.622078 
L 714.374828 328.622078 
L 721.108536 328.622078 
L 727.842245 328.622078 
L 734.575954 328.622078 
L 741.309663 328.622078 
L 748.043371 328.622078 
L 754.77708 328.622078 
L 761.510789 328.622078 
L 768.244498 328.622078 
L 774.978206 328.622078 
L 781.711915 328.622078 
L 788.445624 328.622078 
L 795.179333 328.622078 
L 801.913042 328.622078 
L 808.64675 328.622078 
L 815.380459 328.622078 
L 822.114168 328.622078 
L 828.847877 328.622078 
L 835.581585 328.622078 
L 842.315294 328.622078 
L 849.049003 328.622078 
L 855.782712 328.622078 
L 862.51642 328.622078 
L 862.51642 294.975325 
L 862.51642 294.975325 
L 855.782712 294.71039 
L 849.049003 294.392468 
L 842.315294 294.392468 
L 835.581585 294.357143 
L 828.847877 294.71039 
L 822.114168 295.134286 
L 815.380459 295.134286 
L 808.64675 294.816364 
L 801.913042 294.427792 
L 795.179333 294.445455 
L 788.445624 294.604416 
L 781.711915 295.134286 
L 774.978206 295.134286 
L 768.244498 295.134286 
L 761.510789 294.869351 
L 754.77708 294.392468 
L 748.043371 294.154026 
L 741.309663 294.392468 
L 734.575954 294.816364 
L 727.842245 295.134286 
L 721.108536 295.134286 
L 714.374828 294.71039 
L 707.641119 294.207013 
L 700.90741 294.127532 
L 694.173701 294.180519 
L 687.439992 294.657403 
L 680.706284 295.134286 
L 673.972575 295.134286 
L 667.238866 294.763377 
L 660.505157 294.180519 
L 653.771449 294.198182 
L 647.03774 294.339481 
L 640.304031 294.975325 
L 633.570322 295.160779 
L 626.836614 295.187273 
L 620.102905 295.134286 
L 613.369196 294.71039 
L 606.635487 294.180519 
L 599.901778 294.180519 
L 593.16807 294.657403 
L 586.434361 294.869351 
L 579.700652 295.134286 
L 572.966943 294.922338 
L 566.233235 294.657403 
L 559.499526 294.71039 
L 552.765817 294.71039 
L 546.032108 295.187273 
L 539.2984 295.531688 
L 532.564691 295.743636 
L 525.830982 295.77013 
L 519.097273 295.505195 
L 512.363564 295.452208 
L 505.629856 295.77013 
L 498.896147 296.564935 
L 492.162438 296.82987 
L 485.428729 296.82987 
L 478.695021 296.335325 
L 471.961312 295.982078 
L 465.227603 295.876104 
L 458.493894 296.352987 
L 451.760186 296.82987 
L 445.026477 297.253766 
L 438.292768 297.183117 
L 431.559059 296.617922 
L 424.82535 295.77013 
L 418.091642 295.77013 
L 411.357933 295.77013 
L 404.624224 296.194026 
L 397.890515 296.564935 
L 391.156807 296.564935 
L 384.423098 296.194026 
L 377.689389 295.77013 
L 370.95568 295.77013 
L 364.221972 296.494286 
L 357.488263 296.82987 
L 350.754554 297.041818 
L 344.020845 296.935844 
L 337.287136 296.467792 
L 330.553428 296.3 
L 323.819719 296.141039 
L 317.08601 296.458961 
L 310.352301 296.82987 
L 303.618593 297.165455 
L 296.884884 297.271429 
L 290.151175 296.370649 
L 283.417466 296.247013 
L 276.683758 295.982078 
L 269.950049 295.982078 
L 263.21634 296.388312 
L 256.482631 296.82987 
L 249.748922 296.82987 
L 243.015214 296.494286 
L 236.281505 296.3 
L 229.547796 296.035065 
L 222.814087 296.035065 
L 216.080379 296.035065 
L 209.34667 295.487532 
L 202.612961 294.922338 
L 195.879252 294.71039 
L 189.145544 294.71039 
L 182.411835 294.71039 
L 175.678126 295.134286 
L 168.944417 295.77013 
L 162.210708 296.3 
L 155.477 296.617922 
L 148.743291 296.158701 
L 142.009582 296.3 
L 135.275873 296.476623 
L 128.542165 296.82987 
L 121.808456 297.35974 
L 115.074747 297.465714 
L 108.341038 297.412727 
L 101.60733 297.183117 
z
" style="fill:#a6cee3;fill-opacity:0.75;"/>
   </g>
   <g id="PolyCollection_2">
    <path clip-path="url(#pc8f92a39cc)" d="M 101.60733 248.435065 
L 101.60733 297.183117 
L 108.341038 297.412727 
L 115.074747 297.465714 
L 121.808456 297.35974 
L 128.542165 296.82987 
L 135.275873 296.476623 
L 142.009582 296.3 
L 148.743291 296.158701 
L 155.477 296.617922 
L 162.210708 296.3 
L 168.944417 295.77013 
L 175.678126 295.134286 
L 182.411835 294.71039 
L 189.145544 294.71039 
L 195.879252 294.71039 
L 202.612961 294.922338 
L 209.34667 295.487532 
L 216.080379 296.035065 
L 222.814087 296.035065 
L 229.547796 296.035065 
L 236.281505 296.3 
L 243.015214 296.494286 
L 249.748922 296.82987 
L 256.482631 296.82987 
L 263.21634 296.388312 
L 269.950049 295.982078 
L 276.683758 295.982078 
L 283.417466 296.247013 
L 290.151175 296.370649 
L 296.884884 297.271429 
L 303.618593 297.165455 
L 310.352301 296.82987 
L 317.08601 296.458961 
L 323.819719 296.141039 
L 330.553428 296.3 
L 337.287136 296.467792 
L 344.020845 296.935844 
L 350.754554 297.041818 
L 357.488263 296.82987 
L 364.221972 296.494286 
L 370.95568 295.77013 
L 377.689389 295.77013 
L 384.423098 296.194026 
L 391.156807 296.564935 
L 397.890515 296.564935 
L 404.624224 296.194026 
L 411.357933 295.77013 
L 418.091642 295.77013 
L 424.82535 295.77013 
L 431.559059 296.617922 
L 438.292768 297.183117 
L 445.026477 297.253766 
L 451.760186 296.82987 
L 458.493894 296.352987 
L 465.227603 295.876104 
L 471.961312 295.982078 
L 478.695021 296.335325 
L 485.428729 296.82987 
L 492.162438 296.82987 
L 498.896147 296.564935 
L 505.629856 295.77013 
L 512.363564 295.452208 
L 519.097273 295.505195 
L 525.830982 295.77013 
L 532.564691 295.743636 
L 539.2984 295.531688 
L 546.032108 295.187273 
L 552.765817 294.71039 
L 559.499526 294.71039 
L 566.233235 294.657403 
L 572.966943 294.922338 
L 579.700652 295.134286 
L 586.434361 294.869351 
L 593.16807 294.657403 
L 599.901778 294.180519 
L 606.635487 294.180519 
L 613.369196 294.71039 
L 620.102905 295.134286 
L 626.836614 295.187273 
L 633.570322 295.160779 
L 640.304031 294.975325 
L 647.03774 294.339481 
L 653.771449 294.198182 
L 660.505157 294.180519 
L 667.238866 294.763377 
L 673.972575 295.134286 
L 680.706284 295.134286 
L 687.439992 294.657403 
L 694.173701 294.180519 
L 700.90741 294.127532 
L 707.641119 294.207013 
L 714.374828 294.71039 
L 721.108536 295.134286 
L 727.842245 295.134286 
L 734.575954 294.816364 
L 741.309663 294.392468 
L 748.043371 294.154026 
L 754.77708 294.392468 
L 761.510789 294.869351 
L 768.244498 295.134286 
L 774.978206 295.134286 
L 781.711915 295.134286 
L 788.445624 294.604416 
L 795.179333 294.445455 
L 801.913042 294.427792 
L 808.64675 294.816364 
L 815.380459 295.134286 
L 822.114168 295.134286 
L 828.847877 294.71039 
L 835.581585 294.357143 
L 842.315294 294.392468 
L 849.049003 294.392468 
L 855.782712 294.71039 
L 862.51642 294.975325 
L 862.51642 245.167532 
L 862.51642 245.167532 
L 855.782712 248.081818 
L 849.049003 245.644416 
L 842.315294 243.524935 
L 835.581585 241.37013 
L 828.847877 236.424675 
L 822.114168 231.54987 
L 815.380459 236.848571 
L 808.64675 241.829351 
L 801.913042 241.440779 
L 795.179333 241.458442 
L 788.445624 241.617403 
L 781.711915 236.848571 
L 774.978206 231.54987 
L 768.244498 236.848571 
L 761.510789 241.882338 
L 754.77708 241.405455 
L 748.043371 241.167013 
L 741.309663 241.405455 
L 734.575954 236.530649 
L 727.842245 231.54987 
L 721.108536 236.848571 
L 714.374828 241.723377 
L 707.641119 241.22 
L 700.90741 241.140519 
L 694.173701 241.193506 
L 687.439992 236.371688 
L 680.706284 231.54987 
L 673.972575 236.848571 
L 667.238866 241.776364 
L 660.505157 241.193506 
L 653.771449 243.330649 
L 647.03774 245.591429 
L 640.304031 243.048052 
L 633.570322 240.054286 
L 626.836614 247.498961 
L 620.102905 252.744675 
L 613.369196 252.320779 
L 606.635487 251.790909 
L 599.901778 251.790909 
L 593.16807 246.969091 
L 586.434361 241.882338 
L 579.700652 238.968052 
L 572.966943 235.576883 
L 566.233235 226.834026 
L 559.499526 218.409091 
L 552.765817 209.931169 
L 546.032108 205.109351 
L 539.2984 210.752468 
L 532.564691 216.263117 
L 525.830982 221.588312 
L 519.097273 221.323377 
L 512.363564 229.748312 
L 505.629856 227.946753 
L 498.896147 231.920779 
L 492.162438 235.364935 
L 485.428729 249.141558 
L 478.695021 253.945714 
L 471.961312 253.592468 
L 465.227603 253.486494 
L 458.493894 253.963377 
L 451.760186 249.141558 
L 445.026477 244.266753 
L 438.292768 249.494805 
L 431.559059 254.228312 
L 424.82535 253.380519 
L 418.091642 253.380519 
L 411.357933 253.380519 
L 404.624224 248.505714 
L 397.890515 243.577922 
L 391.156807 248.876623 
L 384.423098 253.804416 
L 377.689389 253.380519 
L 370.95568 253.380519 
L 364.221972 254.104675 
L 357.488263 249.141558 
L 350.754554 244.054805 
L 344.020845 238.65013 
L 337.287136 232.883377 
L 330.553428 222.118182 
L 323.819719 221.959221 
L 317.08601 222.277143 
L 310.352301 227.946753 
L 303.618593 233.581039 
L 296.884884 249.583117 
L 290.151175 253.981039 
L 283.417466 253.857403 
L 276.683758 253.592468 
L 269.950049 253.592468 
L 263.21634 248.7 
L 256.482631 243.842857 
L 249.748922 238.544156 
L 243.015214 232.90987 
L 236.281505 222.118182 
L 229.547796 211.255844 
L 222.814087 200.658442 
L 216.080379 205.957143 
L 209.34667 200.110909 
L 202.612961 204.844416 
L 195.879252 209.931169 
L 189.145544 209.931169 
L 182.411835 199.333766 
L 175.678126 199.757662 
L 168.944417 205.692208 
L 162.210708 211.520779 
L 155.477 221.376364 
L 148.743291 230.454805 
L 142.009582 234.835065 
L 135.275873 228.653247 
L 128.542165 222.648052 
L 121.808456 224.237662 
L 115.074747 225.403377 
L 108.341038 237.007532 
L 101.60733 248.435065 
z
" style="fill:#1f78b4;fill-opacity:0.75;"/>
   </g>
   <g id="matplotlib.axis_1">
    <g id="xtick_1">
     <g id="line2d_1">
      <defs>
       <path d="M 0 0 
L 0 3.5 
" id="m40b4b52a41" style="stroke:#000000;stroke-width:0.8;"/>
      </defs>
      <g>
       <use style="stroke:#000000;stroke-width:0.8;" x="101.60733" xlink:href="#m40b4b52a41" y="328.622078"/>
      </g>
     </g>
    </g>
    <g id="xtick_2">
     <g id="line2d_2">
      <g>
       <use style="stroke:#000000;stroke-width:0.8;" x="216.080379" xlink:href="#m40b4b52a41" y="328.622078"/>
      </g>
     </g>
    </g>
    <g id="xtick_3">
     <g id="line2d_3">
      <g>
       <use style="stroke:#000000;stroke-width:0.8;" x="310.352301" xlink:href="#m40b4b52a41" y="328.622078"/>
      </g>
     </g>
    </g>
    <g id="xtick_4">
     <g id="line2d_4">
      <g>
       <use style="stroke:#000000;stroke-width:0.8;" x="424.82535" xlink:href="#m40b4b52a41" y="328.622078"/>
      </g>
     </g>
    </g>
    <g id="xtick_5">
     <g id="line2d_5">
      <g>
       <use style="stroke:#000000;stroke-width:0.8;" x="519.097273" xlink:href="#m40b4b52a41" y="328.622078"/>
      </g>
     </g>
    </g>
    <g id="xtick_6">
     <g id="line2d_6">
      <g>
       <use style="stroke:#000000;stroke-width:0.8;" x="613.369196" xlink:href="#m40b4b52a41" y="328.622078"/>
      </g>
     </g>
    </g>
    <g id="xtick_7">
     <g id="line2d_7">
      <g>
       <use style="stroke:#000000;stroke-width:0.8;" x="707.641119" xlink:href="#m40b4b52a41" y="328.622078"/>
      </g>
     </g>
    </g>
    <g id="xtick_8">
     <g id="line2d_8">
      <g>
       <use style="stroke:#000000;stroke-width:0.8;" x="822.114168" xlink:href="#m40b4b52a41" y="328.622078"/>
      </g>
     </g>
    </g>
   </g>
   <g id="matplotlib.axis_2">
    <g id="ytick_1">
     <g id="line2d_9">
      <defs>
       <path d="M 0 0 
L -3.5 0 
" id="mf4c9554c14" style="stroke:#000000;stroke-width:0.8;"/>
      </defs>
      <g>
       <use style="stroke:#000000;stroke-width:0.8;" x="63.561875" xlink:href="#mf4c9554c14" y="328.622078"/>
      </g>
     </g>
     <g id="text_1">
      <!-- $0 -->
      <defs>
       <path d="M 33.796875 -14.703125 
L 28.90625 -14.703125 
L 28.859375 0 
Q 23.734375 0.09375 18.609375 1.1875 
Q 13.484375 2.296875 8.296875 4.5 
L 8.296875 13.28125 
Q 13.28125 10.15625 18.375 8.5625 
Q 23.484375 6.984375 28.90625 6.9375 
L 28.90625 29.203125 
Q 18.109375 30.953125 13.203125 35.15625 
Q 8.296875 39.359375 8.296875 46.6875 
Q 8.296875 54.640625 13.625 59.21875 
Q 18.953125 63.8125 28.90625 64.5 
L 28.90625 75.984375 
L 33.796875 75.984375 
L 33.796875 64.65625 
Q 38.328125 64.453125 42.578125 63.6875 
Q 46.828125 62.9375 50.875 61.625 
L 50.875 53.078125 
Q 46.828125 55.125 42.546875 56.25 
Q 38.28125 57.375 33.796875 57.5625 
L 33.796875 36.71875 
Q 44.875 35.015625 50.09375 30.609375 
Q 55.328125 26.21875 55.328125 18.609375 
Q 55.328125 10.359375 49.78125 5.59375 
Q 44.234375 0.828125 33.796875 0.09375 
z
M 28.90625 37.59375 
L 28.90625 57.625 
Q 23.25 56.984375 20.265625 54.390625 
Q 17.28125 51.8125 17.28125 47.515625 
Q 17.28125 43.3125 20.03125 40.96875 
Q 22.796875 38.625 28.90625 37.59375 
z
M 33.796875 28.21875 
L 33.796875 7.078125 
Q 39.984375 7.90625 43.140625 10.59375 
Q 46.296875 13.28125 46.296875 17.671875 
Q 46.296875 21.96875 43.28125 24.5 
Q 40.28125 27.046875 33.796875 28.21875 
z
" id="DejaVuSans-24"/>
       <path d="M 31.78125 66.40625 
Q 24.171875 66.40625 20.328125 58.90625 
Q 16.5 51.421875 16.5 36.375 
Q 16.5 21.390625 20.328125 13.890625 
Q 24.171875 6.390625 31.78125 6.390625 
Q 39.453125 6.390625 43.28125 13.890625 
Q 47.125 21.390625 47.125 36.375 
Q 47.125 51.421875 43.28125 58.90625 
Q 39.453125 66.40625 31.78125 66.40625 
z
M 31.78125 74.21875 
Q 44.046875 74.21875 50.515625 64.515625 
Q 56.984375 54.828125 56.984375 36.375 
Q 56.984375 17.96875 50.515625 8.265625 
Q 44.046875 -1.421875 31.78125 -1.421875 
Q 19.53125 -1.421875 13.0625 8.265625 
Q 6.59375 17.96875 6.59375 36.375 
Q 6.59375 54.828125 13.0625 64.515625 
Q 19.53125 74.21875 31.78125 74.21875 
z
" id="DejaVuSans-30"/>
      </defs>
      <g transform="translate(43.836875 332.421297)scale(0.1 -0.1)">
       <use xlink:href="#DejaVuSans-24"/>
       <use x="63.623047" xlink:href="#DejaVuSans-30"/>
      </g>
     </g>
    </g>
    <g id="ytick_2">
     <g id="line2d_10">
      <g>
       <use style="stroke:#000000;stroke-width:0.8;" x="63.561875" xlink:href="#mf4c9554c14" y="286.232468"/>
      </g>
     </g>
     <g id="text_2">
      <!-- $200 -->
      <defs>
       <path d="M 19.1875 8.296875 
L 53.609375 8.296875 
L 53.609375 0 
L 7.328125 0 
L 7.328125 8.296875 
Q 12.9375 14.109375 22.625 23.890625 
Q 32.328125 33.6875 34.8125 36.53125 
Q 39.546875 41.84375 41.421875 45.53125 
Q 43.3125 49.21875 43.3125 52.78125 
Q 43.3125 58.59375 39.234375 62.25 
Q 35.15625 65.921875 28.609375 65.921875 
Q 23.96875 65.921875 18.8125 64.3125 
Q 13.671875 62.703125 7.8125 59.421875 
L 7.8125 69.390625 
Q 13.765625 71.78125 18.9375 73 
Q 24.125 74.21875 28.421875 74.21875 
Q 39.75 74.21875 46.484375 68.546875 
Q 53.21875 62.890625 53.21875 53.421875 
Q 53.21875 48.921875 51.53125 44.890625 
Q 49.859375 40.875 45.40625 35.40625 
Q 44.1875 33.984375 37.640625 27.21875 
Q 31.109375 20.453125 19.1875 8.296875 
z
" id="DejaVuSans-32"/>
      </defs>
      <g transform="translate(31.111875 290.031686)scale(0.1 -0.1)">
       <use xlink:href="#DejaVuSans-24"/>
       <use x="63.623047" xlink:href="#DejaVuSans-32"/>
       <use x="127.246094" xlink:href="#DejaVuSans-30"/>
       <use x="190.869141" xlink:href="#DejaVuSans-30"/>
      </g>
     </g>
    </g>
    <g id="ytick_3">
     <g id="line2d_11">
      <g>
       <use style="stroke:#000000;stroke-width:0.8;" x="63.561875" xlink:href="#mf4c9554c14" y="243.842857"/>
      </g>
     </g>
     <g id="text_3">
      <!-- $400 -->
      <defs>
       <path d="M 37.796875 64.3125 
L 12.890625 25.390625 
L 37.796875 25.390625 
z
M 35.203125 72.90625 
L 47.609375 72.90625 
L 47.609375 25.390625 
L 58.015625 25.390625 
L 58.015625 17.1875 
L 47.609375 17.1875 
L 47.609375 0 
L 37.796875 0 
L 37.796875 17.1875 
L 4.890625 17.1875 
L 4.890625 26.703125 
z
" id="DejaVuSans-34"/>
      </defs>
      <g transform="translate(31.111875 247.642076)scale(0.1 -0.1)">
       <use xlink:href="#DejaVuSans-24"/>
       <use x="63.623047" xlink:href="#DejaVuSans-34"/>
       <use x="127.246094" xlink:href="#DejaVuSans-30"/>
       <use x="190.869141" xlink:href="#DejaVuSans-30"/>
      </g>
     </g>
    </g>
    <g id="ytick_4">
     <g id="line2d_12">
      <g>
       <use style="stroke:#000000;stroke-width:0.8;" x="63.561875" xlink:href="#mf4c9554c14" y="201.453247"/>
      </g>
     </g>
     <g id="text_4">
      <!-- $600 -->
      <defs>
       <path d="M 33.015625 40.375 
Q 26.375 40.375 22.484375 35.828125 
Q 18.609375 31.296875 18.609375 23.390625 
Q 18.609375 15.53125 22.484375 10.953125 
Q 26.375 6.390625 33.015625 6.390625 
Q 39.65625 6.390625 43.53125 10.953125 
Q 47.40625 15.53125 47.40625 23.390625 
Q 47.40625 31.296875 43.53125 35.828125 
Q 39.65625 40.375 33.015625 40.375 
z
M 52.59375 71.296875 
L 52.59375 62.3125 
Q 48.875 64.0625 45.09375 64.984375 
Q 41.3125 65.921875 37.59375 65.921875 
Q 27.828125 65.921875 22.671875 59.328125 
Q 17.53125 52.734375 16.796875 39.40625 
Q 19.671875 43.65625 24.015625 45.921875 
Q 28.375 48.1875 33.59375 48.1875 
Q 44.578125 48.1875 50.953125 41.515625 
Q 57.328125 34.859375 57.328125 23.390625 
Q 57.328125 12.15625 50.6875 5.359375 
Q 44.046875 -1.421875 33.015625 -1.421875 
Q 20.359375 -1.421875 13.671875 8.265625 
Q 6.984375 17.96875 6.984375 36.375 
Q 6.984375 53.65625 15.1875 63.9375 
Q 23.390625 74.21875 37.203125 74.21875 
Q 40.921875 74.21875 44.703125 73.484375 
Q 48.484375 72.75 52.59375 71.296875 
z
" id="DejaVuSans-36"/>
      </defs>
      <g transform="translate(31.111875 205.252466)scale(0.1 -0.1)">
       <use xlink:href="#DejaVuSans-24"/>
       <use x="63.623047" xlink:href="#DejaVuSans-36"/>
       <use x="127.246094" xlink:href="#DejaVuSans-30"/>
       <use x="190.869141" xlink:href="#DejaVuSans-30"/>
      </g>
     </g>
    </g>
    <g id="ytick_5">
     <g id="line2d_13">
      <g>
       <use style="stroke:#000000;stroke-width:0.8;" x="63.561875" xlink:href="#mf4c9554c14" y="159.063636"/>
      </g>
     </g>
     <g id="text_5">
      <!-- $800 -->
      <defs>
       <path d="M 31.78125 34.625 
Q 24.75 34.625 20.71875 30.859375 
Q 16.703125 27.09375 16.703125 20.515625 
Q 16.703125 13.921875 20.71875 10.15625 
Q 24.75 6.390625 31.78125 6.390625 
Q 38.8125 6.390625 42.859375 10.171875 
Q 46.921875 13.96875 46.921875 20.515625 
Q 46.921875 27.09375 42.890625 30.859375 
Q 38.875 34.625 31.78125 34.625 
z
M 21.921875 38.8125 
Q 15.578125 40.375 12.03125 44.71875 
Q 8.5 49.078125 8.5 55.328125 
Q 8.5 64.0625 14.71875 69.140625 
Q 20.953125 74.21875 31.78125 74.21875 
Q 42.671875 74.21875 48.875 69.140625 
Q 55.078125 64.0625 55.078125 55.328125 
Q 55.078125 49.078125 51.53125 44.71875 
Q 48 40.375 41.703125 38.8125 
Q 48.828125 37.15625 52.796875 32.3125 
Q 56.78125 27.484375 56.78125 20.515625 
Q 56.78125 9.90625 50.3125 4.234375 
Q 43.84375 -1.421875 31.78125 -1.421875 
Q 19.734375 -1.421875 13.25 4.234375 
Q 6.78125 9.90625 6.78125 20.515625 
Q 6.78125 27.484375 10.78125 32.3125 
Q 14.796875 37.15625 21.921875 38.8125 
z
M 18.3125 54.390625 
Q 18.3125 48.734375 21.84375 45.5625 
Q 25.390625 42.390625 31.78125 42.390625 
Q 38.140625 42.390625 41.71875 45.5625 
Q 45.3125 48.734375 45.3125 54.390625 
Q 45.3125 60.0625 41.71875 63.234375 
Q 38.140625 66.40625 31.78125 66.40625 
Q 25.390625 66.40625 21.84375 63.234375 
Q 18.3125 60.0625 18.3125 54.390625 
z
" id="DejaVuSans-38"/>
      </defs>
      <g transform="translate(31.111875 162.862855)scale(0.1 -0.1)">
       <use xlink:href="#DejaVuSans-24"/>
       <use x="63.623047" xlink:href="#DejaVuSans-38"/>
       <use x="127.246094" xlink:href="#DejaVuSans-30"/>
       <use x="190.869141" xlink:href="#DejaVuSans-30"/>
      </g>
     </g>
    </g>
    <g id="ytick_6">
     <g id="line2d_14">
      <g>
       <use style="stroke:#000000;stroke-width:0.8;" x="63.561875" xlink:href="#mf4c9554c14" y="116.674026"/>
      </g>
     </g>
     <g id="text_6">
      <!-- $1000 -->
      <defs>
       <path d="M 12.40625 8.296875 
L 28.515625 8.296875 
L 28.515625 63.921875 
L 10.984375 60.40625 
L 10.984375 69.390625 
L 28.421875 72.90625 
L 38.28125 72.90625 
L 38.28125 8.296875 
L 54.390625 8.296875 
L 54.390625 0 
L 12.40625 0 
z
" id="DejaVuSans-31"/>
      </defs>
      <g transform="translate(24.749375 120.473245)scale(0.1 -0.1)">
       <use xlink:href="#DejaVuSans-24"/>
       <use x="63.623047" xlink:href="#DejaVuSans-31"/>
       <use x="127.246094" xlink:href="#DejaVuSans-30"/>
       <use x="190.869141" xlink:href="#DejaVuSans-30"/>
       <use x="254.492188" xlink:href="#DejaVuSans-30"/>
      </g>
     </g>
    </g>
    <g id="ytick_7">
     <g id="line2d_15">
      <g>
       <use style="stroke:#000000;stroke-width:0.8;" x="63.561875" xlink:href="#mf4c9554c14" y="74.284416"/>
      </g>
     </g>
     <g id="text_7">
      <!-- $1200 -->
      <g transform="translate(24.749375 78.083634)scale(0.1 -0.1)">
       <use xlink:href="#DejaVuSans-24"/>
       <use x="63.623047" xlink:href="#DejaVuSans-31"/>
       <use x="127.246094" xlink:href="#DejaVuSans-32"/>
       <use x="190.869141" xlink:href="#DejaVuSans-30"/>
       <use x="254.492188" xlink:href="#DejaVuSans-30"/>
      </g>
     </g>
    </g>
    <g id="ytick_8">
     <g id="line2d_16">
      <g>
       <use style="stroke:#000000;stroke-width:0.8;" x="63.561875" xlink:href="#mf4c9554c14" y="31.894805"/>
      </g>
     </g>
     <g id="text_8">
      <!-- $1400 -->
      <g transform="translate(24.749375 35.694024)scale(0.1 -0.1)">
       <use xlink:href="#DejaVuSans-24"/>
       <use x="63.623047" xlink:href="#DejaVuSans-31"/>
       <use x="127.246094" xlink:href="#DejaVuSans-34"/>
       <use x="190.869141" xlink:href="#DejaVuSans-30"/>
       <use x="254.492188" xlink:href="#DejaVuSans-30"/>
      </g>
     </g>
    </g>
    <g id="text_9">
     <!-- Price -->
     <defs>
      <path d="M 19.671875 64.796875 
L 19.671875 37.40625 
L 32.078125 37.40625 
Q 38.96875 37.40625 42.71875 40.96875 
Q 46.484375 44.53125 46.484375 51.125 
Q 46.484375 57.671875 42.71875 61.234375 
Q 38.96875 64.796875 32.078125 64.796875 
z
M 9.8125 72.90625 
L 32.078125 72.90625 
Q 44.34375 72.90625 50.609375 67.359375 
Q 56.890625 61.8125 56.890625 51.125 
Q 56.890625 40.328125 50.609375 34.8125 
Q 44.34375 29.296875 32.078125 29.296875 
L 19.671875 29.296875 
L 19.671875 0 
L 9.8125 0 
z
" id="DejaVuSans-50"/>
      <path d="M 41.109375 46.296875 
Q 39.59375 47.171875 37.8125 47.578125 
Q 36.03125 48 33.890625 48 
Q 26.265625 48 22.1875 43.046875 
Q 18.109375 38.09375 18.109375 28.8125 
L 18.109375 0 
L 9.078125 0 
L 9.078125 54.6875 
L 18.109375 54.6875 
L 18.109375 46.1875 
Q 20.953125 51.171875 25.484375 53.578125 
Q 30.03125 56 36.53125 56 
Q 37.453125 56 38.578125 55.875 
Q 39.703125 55.765625 41.0625 55.515625 
z
" id="DejaVuSans-72"/>
      <path d="M 9.421875 54.6875 
L 18.40625 54.6875 
L 18.40625 0 
L 9.421875 0 
z
M 9.421875 75.984375 
L 18.40625 75.984375 
L 18.40625 64.59375 
L 9.421875 64.59375 
z
" id="DejaVuSans-69"/>
      <path d="M 48.78125 52.59375 
L 48.78125 44.1875 
Q 44.96875 46.296875 41.140625 47.34375 
Q 37.3125 48.390625 33.40625 48.390625 
Q 24.65625 48.390625 19.8125 42.84375 
Q 14.984375 37.3125 14.984375 27.296875 
Q 14.984375 17.28125 19.8125 11.734375 
Q 24.65625 6.203125 33.40625 6.203125 
Q 37.3125 6.203125 41.140625 7.25 
Q 44.96875 8.296875 48.78125 10.40625 
L 48.78125 2.09375 
Q 45.015625 0.34375 40.984375 -0.53125 
Q 36.96875 -1.421875 32.421875 -1.421875 
Q 20.0625 -1.421875 12.78125 6.34375 
Q 5.515625 14.109375 5.515625 27.296875 
Q 5.515625 40.671875 12.859375 48.328125 
Q 20.21875 56 33.015625 56 
Q 37.15625 56 41.109375 55.140625 
Q 45.0625 54.296875 48.78125 52.59375 
z
" id="DejaVuSans-63"/>
      <path d="M 56.203125 29.59375 
L 56.203125 25.203125 
L 14.890625 25.203125 
Q 15.484375 15.921875 20.484375 11.0625 
Q 25.484375 6.203125 34.421875 6.203125 
Q 39.59375 6.203125 44.453125 7.46875 
Q 49.3125 8.734375 54.109375 11.28125 
L 54.109375 2.78125 
Q 49.265625 0.734375 44.1875 -0.34375 
Q 39.109375 -1.421875 33.890625 -1.421875 
Q 20.796875 -1.421875 13.15625 6.1875 
Q 5.515625 13.8125 5.515625 26.8125 
Q 5.515625 40.234375 12.765625 48.109375 
Q 20.015625 56 32.328125 56 
Q 43.359375 56 49.78125 48.890625 
Q 56.203125 41.796875 56.203125 29.59375 
z
M 47.21875 32.234375 
Q 47.125 39.59375 43.09375 43.984375 
Q 39.0625 48.390625 32.421875 48.390625 
Q 24.90625 48.390625 20.390625 44.140625 
Q 15.875 39.890625 15.1875 32.171875 
z
" id="DejaVuSans-65"/>
     </defs>
     <g transform="translate(17.837812 186.859164)rotate(-90)scale(0.14 -0.14)">
      <use xlink:href="#DejaVuSans-50"/>
      <use x="60.287109" xlink:href="#DejaVuSans-72"/>
      <use x="101.400391" xlink:href="#DejaVuSans-69"/>
      <use x="129.183594" xlink:href="#DejaVuSans-63"/>
      <use x="184.164062" xlink:href="#DejaVuSans-65"/>
     </g>
    </g>
   </g>
   <g id="line2d_17">
    <path clip-path="url(#pc8f92a39cc)" d="M 101.60733 193.116623 
L 108.341038 180.417403 
L 115.074747 137.444935 
L 121.808456 168.919221 
L 128.542165 141.895844 
L 135.275873 141.966494 
L 142.009582 166.79974 
L 148.743291 131.051169 
L 155.477 140.624156 
L 162.210708 130.768571 
L 168.944417 137.656883 
L 175.678126 85.305714 
L 182.411835 114.130649 
L 189.145544 76.827792 
L 195.879252 58.60026 
L 202.612961 139.776364 
L 209.34667 133.983117 
L 216.080379 171.621558 
L 222.814087 166.322857 
L 229.547796 176.92026 
L 236.281505 154.082857 
L 243.015214 99.806494 
L 249.748922 151.857403 
L 256.482631 203.148831 
L 263.21634 193.381558 
L 269.950049 216.077662 
L 276.683758 165.634026 
L 283.417466 198.538961 
L 290.151175 198.662597 
L 296.884884 194.264675 
L 303.618593 178.262597 
L 310.352301 190.431948 
L 317.08601 134.318701 
L 323.819719 166.640779 
L 330.553428 166.79974 
L 337.287136 177.564935 
L 344.020845 197.956104 
L 350.754554 188.736364 
L 357.488263 211.626753 
L 364.221972 166.146234 
L 370.95568 198.062078 
L 377.689389 198.062078 
L 384.423098 198.485974 
L 391.156807 193.558182 
L 397.890515 206.063117 
L 404.624224 160.547273 
L 411.357933 198.062078 
L 418.091642 198.062078 
L 424.82535 219.044935 
L 431.559059 219.892727 
L 438.292768 215.159221 
L 445.026477 188.948312 
L 451.760186 211.626753 
L 458.493894 166.004935 
L 465.227603 198.168052 
L 471.961312 198.274026 
L 478.695021 198.627273 
L 485.428729 193.823117 
L 492.162438 195.730649 
L 498.896147 143.962338 
L 505.629856 172.628312 
L 512.363564 174.42987 
L 519.097273 153.288052 
L 525.830982 179.834545 
L 532.564691 160.944675 
L 539.2984 168.998701 
L 546.032108 117.150909 
L 552.765817 154.612727 
L 559.499526 150.373766 
L 566.233235 171.515584 
L 572.966943 180.258442 
L 579.700652 201.453247 
L 586.434361 153.923896 
L 593.16807 191.650649 
L 599.901778 183.755584 
L 606.635487 196.472468 
L 613.369196 211.626753 
L 620.102905 197.426234 
L 626.836614 205.745195 
L 633.570322 152.095844 
L 640.304031 187.72961 
L 647.03774 177.556104 
L 653.771449 175.295325 
L 660.505157 199.43974 
L 667.238866 186.457922 
L 673.972575 195.094805 
L 680.706284 143.591429 
L 687.439992 181.053247 
L 694.173701 154.506753 
L 700.90741 173.105195 
L 707.641119 185.901558 
L 714.374828 186.404935 
L 721.108536 148.89013 
L 727.842245 143.591429 
L 734.575954 181.212208 
L 741.309663 173.37013 
L 748.043371 185.848571 
L 754.77708 173.37013 
L 761.510789 186.563896 
L 768.244498 148.89013 
L 774.978206 143.591429 
L 781.711915 168.813247 
L 788.445624 154.930649 
L 795.179333 173.423117 
L 801.913042 193.328571 
L 808.64675 186.510909 
L 815.380459 188.736364 
L 822.114168 194.035065 
L 828.847877 148.466234 
L 835.581585 186.051688 
L 842.315294 175.48961 
L 849.049003 190.325974 
L 855.782712 199.96961 
L 862.51642 189.849091 
" style="fill:none;stroke:#a1d99b;stroke-linecap:square;stroke-width:3;"/>
   </g>
   <g id="line2d_18">
    <path clip-path="url(#pc8f92a39cc)" d="M 101.60733 189.725455 
L 108.341038 170.87974 
L 115.074747 160.759221 
L 121.808456 153.870909 
L 128.542165 161.818961 
L 135.275873 169.943636 
L 142.009582 174.42987 
L 148.743291 159.028312 
L 155.477 154.188831 
L 162.210708 148.572208 
L 168.944417 141.683896 
L 175.678126 94.419481 
L 182.411835 108.408052 
L 189.145544 135.749351 
L 195.879252 142.743636 
L 202.612961 140.20026 
L 209.34667 135.042857 
L 216.080379 165.687013 
L 222.814087 160.388312 
L 229.547796 170.985714 
L 236.281505 181.848052 
L 243.015214 192.63974 
L 249.748922 198.274026 
L 256.482631 203.572727 
L 263.21634 199.951948 
L 269.950049 198.062078 
L 276.683758 206.54 
L 283.417466 205.109351 
L 290.151175 205.232987 
L 296.884884 207.617403 
L 303.618593 189.91974 
L 310.352301 185.981039 
L 317.08601 180.311429 
L 323.819719 179.993506 
L 330.553428 180.152468 
L 337.287136 190.917662 
L 344.020845 196.684416 
L 350.754554 199.545714 
L 357.488263 207.175844 
L 364.221972 212.138961 
L 370.95568 211.414805 
L 377.689389 211.414805 
L 384.423098 211.838701 
L 391.156807 206.910909 
L 397.890515 201.612208 
L 404.624224 206.54 
L 411.357933 211.414805 
L 418.091642 209.719221 
L 424.82535 213.11039 
L 431.559059 213.958182 
L 438.292768 209.224675 
L 445.026477 202.301039 
L 451.760186 207.175844 
L 458.493894 211.997662 
L 465.227603 211.520779 
L 471.961312 211.626753 
L 478.695021 211.98 
L 485.428729 205.48026 
L 492.162438 191.703636 
L 498.896147 189.955065 
L 505.629856 185.981039 
L 512.363564 178.456883 
L 519.097273 177.662078 
L 525.830982 177.927013 
L 532.564691 172.601818 
L 539.2984 161.580519 
L 546.032108 161.448052 
L 552.765817 163.938442 
L 559.499526 171.356623 
L 566.233235 183.172727 
L 572.966943 191.915584 
L 579.700652 195.306753 
L 586.434361 198.221039 
L 593.16807 203.307792 
L 599.901778 200.499481 
L 606.635487 204.738442 
L 613.369196 211.626753 
L 620.102905 209.083377 
L 626.836614 196.207532 
L 633.570322 188.762857 
L 640.304031 193.876104 
L 647.03774 194.3 
L 653.771449 196.278182 
L 660.505157 189.902078 
L 667.238866 190.484935 
L 673.972575 185.557143 
L 680.706284 170.720779 
L 687.439992 187.19974 
L 694.173701 175.065714 
L 700.90741 181.371169 
L 707.641119 191.836104 
L 714.374828 192.339481 
L 721.108536 176.019481 
L 727.842245 169.661039 
L 734.575954 178.032987 
L 741.309663 180.576364 
L 748.043371 179.278182 
L 754.77708 151.751429 
L 761.510789 163.673506 
L 768.244498 153.129091 
L 774.978206 161.183117 
L 781.711915 161.395065 
L 788.445624 163.832468 
L 795.179333 173.211169 
L 801.913042 189.08961 
L 808.64675 186.510909 
L 815.380459 174.95974 
L 822.114168 196.79039 
L 828.847877 201.665195 
L 835.581585 179.481299 
L 842.315294 185.875065 
L 849.049003 184.815325 
L 855.782712 188.312468 
L 862.51642 195.783636 
" style="fill:none;stroke:#fdae6b;stroke-linecap:square;stroke-width:3;"/>
   </g>
   <g id="line2d_19">
    <path clip-path="url(#pc8f92a39cc)" d="M 101.60733 209.295325 
L 108.341038 209.295325 
L 115.074747 209.295325 
L 121.808456 209.295325 
L 128.542165 209.295325 
L 135.275873 209.295325 
L 142.009582 209.295325 
L 148.743291 209.295325 
L 155.477 209.295325 
L 162.210708 209.295325 
L 168.944417 209.295325 
L 175.678126 209.295325 
L 182.411835 209.295325 
L 189.145544 209.295325 
L 195.879252 209.295325 
L 202.612961 209.295325 
L 209.34667 209.295325 
L 216.080379 209.295325 
L 222.814087 209.295325 
L 229.547796 209.295325 
L 236.281505 209.295325 
L 243.015214 209.295325 
L 249.748922 209.295325 
L 256.482631 209.295325 
L 263.21634 209.295325 
L 269.950049 209.295325 
L 276.683758 209.295325 
L 283.417466 209.295325 
L 290.151175 209.295325 
L 296.884884 209.295325 
L 303.618593 209.295325 
L 310.352301 209.295325 
L 317.08601 209.295325 
L 323.819719 209.295325 
L 330.553428 209.295325 
L 337.287136 209.295325 
L 344.020845 209.295325 
L 350.754554 209.295325 
L 357.488263 209.295325 
L 364.221972 209.295325 
L 370.95568 209.295325 
L 377.689389 209.295325 
L 384.423098 209.295325 
L 391.156807 209.295325 
L 397.890515 209.295325 
L 404.624224 209.295325 
L 411.357933 209.295325 
L 418.091642 209.295325 
L 424.82535 209.295325 
L 431.559059 209.295325 
L 438.292768 209.295325 
L 445.026477 209.295325 
L 451.760186 209.295325 
L 458.493894 209.295325 
L 465.227603 209.295325 
L 471.961312 209.295325 
L 478.695021 209.295325 
L 485.428729 209.295325 
L 492.162438 209.295325 
L 498.896147 209.295325 
L 505.629856 209.295325 
L 512.363564 209.295325 
L 519.097273 209.295325 
L 525.830982 209.295325 
L 532.564691 209.295325 
L 539.2984 209.295325 
L 546.032108 209.295325 
L 552.765817 209.295325 
L 559.499526 209.295325 
L 566.233235 209.295325 
L 572.966943 209.295325 
L 579.700652 209.295325 
L 586.434361 209.295325 
L 593.16807 209.295325 
L 599.901778 209.295325 
L 606.635487 209.295325 
L 613.369196 209.295325 
L 620.102905 209.295325 
L 626.836614 209.295325 
L 633.570322 209.295325 
L 640.304031 209.295325 
L 647.03774 209.295325 
L 653.771449 209.295325 
L 660.505157 209.295325 
L 667.238866 209.295325 
L 673.972575 209.295325 
L 680.706284 209.295325 
L 687.439992 209.295325 
L 694.173701 209.295325 
L 700.90741 209.295325 
L 707.641119 209.295325 
L 714.374828 209.295325 
L 721.108536 209.295325 
L 727.842245 209.295325 
L 734.575954 209.295325 
L 741.309663 209.295325 
L 748.043371 209.295325 
L 754.77708 209.295325 
L 761.510789 209.295325 
L 768.244498 209.295325 
L 774.978206 209.295325 
L 781.711915 209.295325 
L 788.445624 209.295325 
L 795.179333 209.295325 
L 801.913042 209.295325 
L 808.64675 209.295325 
L 815.380459 209.295325 
L 822.114168 209.295325 
L 828.847877 209.295325 
L 835.581585 209.295325 
L 842.315294 209.295325 
L 849.049003 209.295325 
L 855.782712 209.295325 
L 862.51642 209.295325 
" style="fill:none;stroke:#000000;stroke-dasharray:1.5,2.475;stroke-dashoffset:0;stroke-opacity:0.4;stroke-width:1.5;"/>
   </g>
   <g id="patch_3">
    <path d="M 63.561875 328.622078 
L 63.561875 10.7 
" style="fill:none;stroke:#000000;stroke-linecap:square;stroke-linejoin:miter;stroke-width:0.8;"/>
   </g>
   <g id="legend_1">
    <g id="patch_4">
     <path d="M 725.785 124.646875 
L 890.761875 124.646875 
Q 893.561875 124.646875 893.561875 121.846875 
L 893.561875 20.5 
Q 893.561875 17.7 890.761875 17.7 
L 725.785 17.7 
Q 722.985 17.7 722.985 20.5 
L 722.985 121.846875 
Q 722.985 124.646875 725.785 124.646875 
z
" style="fill:#ffffff;opacity:0.8;stroke:#cccccc;stroke-linejoin:miter;"/>
    </g>
    <g id="line2d_20">
     <path d="M 728.585 29.037812 
L 756.585 29.037812 
" style="fill:none;stroke:#a1d99b;stroke-linecap:square;stroke-width:3;"/>
    </g>
    <g id="line2d_21"/>
    <g id="text_10">
     <!-- Fly from Madison -->
     <defs>
      <path d="M 9.8125 72.90625 
L 51.703125 72.90625 
L 51.703125 64.59375 
L 19.671875 64.59375 
L 19.671875 43.109375 
L 48.578125 43.109375 
L 48.578125 34.8125 
L 19.671875 34.8125 
L 19.671875 0 
L 9.8125 0 
z
" id="DejaVuSans-46"/>
      <path d="M 9.421875 75.984375 
L 18.40625 75.984375 
L 18.40625 0 
L 9.421875 0 
z
" id="DejaVuSans-6c"/>
      <path d="M 32.171875 -5.078125 
Q 28.375 -14.84375 24.75 -17.8125 
Q 21.140625 -20.796875 15.09375 -20.796875 
L 7.90625 -20.796875 
L 7.90625 -13.28125 
L 13.1875 -13.28125 
Q 16.890625 -13.28125 18.9375 -11.515625 
Q 21 -9.765625 23.484375 -3.21875 
L 25.09375 0.875 
L 2.984375 54.6875 
L 12.5 54.6875 
L 29.59375 11.921875 
L 46.6875 54.6875 
L 56.203125 54.6875 
z
" id="DejaVuSans-79"/>
      <path id="DejaVuSans-20"/>
      <path d="M 37.109375 75.984375 
L 37.109375 68.5 
L 28.515625 68.5 
Q 23.6875 68.5 21.796875 66.546875 
Q 19.921875 64.59375 19.921875 59.515625 
L 19.921875 54.6875 
L 34.71875 54.6875 
L 34.71875 47.703125 
L 19.921875 47.703125 
L 19.921875 0 
L 10.890625 0 
L 10.890625 47.703125 
L 2.296875 47.703125 
L 2.296875 54.6875 
L 10.890625 54.6875 
L 10.890625 58.5 
Q 10.890625 67.625 15.140625 71.796875 
Q 19.390625 75.984375 28.609375 75.984375 
z
" id="DejaVuSans-66"/>
      <path d="M 30.609375 48.390625 
Q 23.390625 48.390625 19.1875 42.75 
Q 14.984375 37.109375 14.984375 27.296875 
Q 14.984375 17.484375 19.15625 11.84375 
Q 23.34375 6.203125 30.609375 6.203125 
Q 37.796875 6.203125 41.984375 11.859375 
Q 46.1875 17.53125 46.1875 27.296875 
Q 46.1875 37.015625 41.984375 42.703125 
Q 37.796875 48.390625 30.609375 48.390625 
z
M 30.609375 56 
Q 42.328125 56 49.015625 48.375 
Q 55.71875 40.765625 55.71875 27.296875 
Q 55.71875 13.875 49.015625 6.21875 
Q 42.328125 -1.421875 30.609375 -1.421875 
Q 18.84375 -1.421875 12.171875 6.21875 
Q 5.515625 13.875 5.515625 27.296875 
Q 5.515625 40.765625 12.171875 48.375 
Q 18.84375 56 30.609375 56 
z
" id="DejaVuSans-6f"/>
      <path d="M 52 44.1875 
Q 55.375 50.25 60.0625 53.125 
Q 64.75 56 71.09375 56 
Q 79.640625 56 84.28125 50.015625 
Q 88.921875 44.046875 88.921875 33.015625 
L 88.921875 0 
L 79.890625 0 
L 79.890625 32.71875 
Q 79.890625 40.578125 77.09375 44.375 
Q 74.3125 48.1875 68.609375 48.1875 
Q 61.625 48.1875 57.5625 43.546875 
Q 53.515625 38.921875 53.515625 30.90625 
L 53.515625 0 
L 44.484375 0 
L 44.484375 32.71875 
Q 44.484375 40.625 41.703125 44.40625 
Q 38.921875 48.1875 33.109375 48.1875 
Q 26.21875 48.1875 22.15625 43.53125 
Q 18.109375 38.875 18.109375 30.90625 
L 18.109375 0 
L 9.078125 0 
L 9.078125 54.6875 
L 18.109375 54.6875 
L 18.109375 46.1875 
Q 21.1875 51.21875 25.484375 53.609375 
Q 29.78125 56 35.6875 56 
Q 41.65625 56 45.828125 52.96875 
Q 50 49.953125 52 44.1875 
z
" id="DejaVuSans-6d"/>
      <path d="M 9.8125 72.90625 
L 24.515625 72.90625 
L 43.109375 23.296875 
L 61.8125 72.90625 
L 76.515625 72.90625 
L 76.515625 0 
L 66.890625 0 
L 66.890625 64.015625 
L 48.09375 14.015625 
L 38.1875 14.015625 
L 19.390625 64.015625 
L 19.390625 0 
L 9.8125 0 
z
" id="DejaVuSans-4d"/>
      <path d="M 34.28125 27.484375 
Q 23.390625 27.484375 19.1875 25 
Q 14.984375 22.515625 14.984375 16.5 
Q 14.984375 11.71875 18.140625 8.90625 
Q 21.296875 6.109375 26.703125 6.109375 
Q 34.1875 6.109375 38.703125 11.40625 
Q 43.21875 16.703125 43.21875 25.484375 
L 43.21875 27.484375 
z
M 52.203125 31.203125 
L 52.203125 0 
L 43.21875 0 
L 43.21875 8.296875 
Q 40.140625 3.328125 35.546875 0.953125 
Q 30.953125 -1.421875 24.3125 -1.421875 
Q 15.921875 -1.421875 10.953125 3.296875 
Q 6 8.015625 6 15.921875 
Q 6 25.140625 12.171875 29.828125 
Q 18.359375 34.515625 30.609375 34.515625 
L 43.21875 34.515625 
L 43.21875 35.40625 
Q 43.21875 41.609375 39.140625 45 
Q 35.0625 48.390625 27.6875 48.390625 
Q 23 48.390625 18.546875 47.265625 
Q 14.109375 46.140625 10.015625 43.890625 
L 10.015625 52.203125 
Q 14.9375 54.109375 19.578125 55.046875 
Q 24.21875 56 28.609375 56 
Q 40.484375 56 46.34375 49.84375 
Q 52.203125 43.703125 52.203125 31.203125 
z
" id="DejaVuSans-61"/>
      <path d="M 45.40625 46.390625 
L 45.40625 75.984375 
L 54.390625 75.984375 
L 54.390625 0 
L 45.40625 0 
L 45.40625 8.203125 
Q 42.578125 3.328125 38.25 0.953125 
Q 33.9375 -1.421875 27.875 -1.421875 
Q 17.96875 -1.421875 11.734375 6.484375 
Q 5.515625 14.40625 5.515625 27.296875 
Q 5.515625 40.1875 11.734375 48.09375 
Q 17.96875 56 27.875 56 
Q 33.9375 56 38.25 53.625 
Q 42.578125 51.265625 45.40625 46.390625 
z
M 14.796875 27.296875 
Q 14.796875 17.390625 18.875 11.75 
Q 22.953125 6.109375 30.078125 6.109375 
Q 37.203125 6.109375 41.296875 11.75 
Q 45.40625 17.390625 45.40625 27.296875 
Q 45.40625 37.203125 41.296875 42.84375 
Q 37.203125 48.484375 30.078125 48.484375 
Q 22.953125 48.484375 18.875 42.84375 
Q 14.796875 37.203125 14.796875 27.296875 
z
" id="DejaVuSans-64"/>
      <path d="M 44.28125 53.078125 
L 44.28125 44.578125 
Q 40.484375 46.53125 36.375 47.5 
Q 32.28125 48.484375 27.875 48.484375 
Q 21.1875 48.484375 17.84375 46.4375 
Q 14.5 44.390625 14.5 40.28125 
Q 14.5 37.15625 16.890625 35.375 
Q 19.28125 33.59375 26.515625 31.984375 
L 29.59375 31.296875 
Q 39.15625 29.25 43.1875 25.515625 
Q 47.21875 21.78125 47.21875 15.09375 
Q 47.21875 7.46875 41.1875 3.015625 
Q 35.15625 -1.421875 24.609375 -1.421875 
Q 20.21875 -1.421875 15.453125 -0.5625 
Q 10.6875 0.296875 5.421875 2 
L 5.421875 11.28125 
Q 10.40625 8.6875 15.234375 7.390625 
Q 20.0625 6.109375 24.8125 6.109375 
Q 31.15625 6.109375 34.5625 8.28125 
Q 37.984375 10.453125 37.984375 14.40625 
Q 37.984375 18.0625 35.515625 20.015625 
Q 33.0625 21.96875 24.703125 23.78125 
L 21.578125 24.515625 
Q 13.234375 26.265625 9.515625 29.90625 
Q 5.8125 33.546875 5.8125 39.890625 
Q 5.8125 47.609375 11.28125 51.796875 
Q 16.75 56 26.8125 56 
Q 31.78125 56 36.171875 55.265625 
Q 40.578125 54.546875 44.28125 53.078125 
z
" id="DejaVuSans-73"/>
      <path d="M 54.890625 33.015625 
L 54.890625 0 
L 45.90625 0 
L 45.90625 32.71875 
Q 45.90625 40.484375 42.875 44.328125 
Q 39.84375 48.1875 33.796875 48.1875 
Q 26.515625 48.1875 22.3125 43.546875 
Q 18.109375 38.921875 18.109375 30.90625 
L 18.109375 0 
L 9.078125 0 
L 9.078125 54.6875 
L 18.109375 54.6875 
L 18.109375 46.1875 
Q 21.34375 51.125 25.703125 53.5625 
Q 30.078125 56 35.796875 56 
Q 45.21875 56 50.046875 50.171875 
Q 54.890625 44.34375 54.890625 33.015625 
z
" id="DejaVuSans-6e"/>
     </defs>
     <g transform="translate(767.785 33.937812)scale(0.14 -0.14)">
      <use xlink:href="#DejaVuSans-46"/>
      <use x="57.519531" xlink:href="#DejaVuSans-6c"/>
      <use x="85.302734" xlink:href="#DejaVuSans-79"/>
      <use x="144.482422" xlink:href="#DejaVuSans-20"/>
      <use x="176.269531" xlink:href="#DejaVuSans-66"/>
      <use x="211.474609" xlink:href="#DejaVuSans-72"/>
      <use x="252.556641" xlink:href="#DejaVuSans-6f"/>
      <use x="313.738281" xlink:href="#DejaVuSans-6d"/>
      <use x="411.150391" xlink:href="#DejaVuSans-20"/>
      <use x="442.9375" xlink:href="#DejaVuSans-4d"/>
      <use x="529.216797" xlink:href="#DejaVuSans-61"/>
      <use x="590.496094" xlink:href="#DejaVuSans-64"/>
      <use x="653.972656" xlink:href="#DejaVuSans-69"/>
      <use x="681.755859" xlink:href="#DejaVuSans-73"/>
      <use x="733.855469" xlink:href="#DejaVuSans-6f"/>
      <use x="795.037109" xlink:href="#DejaVuSans-6e"/>
     </g>
    </g>
    <g id="line2d_22">
     <path d="M 728.585 49.587187 
L 756.585 49.587187 
" style="fill:none;stroke:#fdae6b;stroke-linecap:square;stroke-width:3;"/>
    </g>
    <g id="line2d_23"/>
    <g id="text_11">
     <!-- Fly from Chicago -->
     <defs>
      <path d="M 64.40625 67.28125 
L 64.40625 56.890625 
Q 59.421875 61.53125 53.78125 63.8125 
Q 48.140625 66.109375 41.796875 66.109375 
Q 29.296875 66.109375 22.65625 58.46875 
Q 16.015625 50.828125 16.015625 36.375 
Q 16.015625 21.96875 22.65625 14.328125 
Q 29.296875 6.6875 41.796875 6.6875 
Q 48.140625 6.6875 53.78125 8.984375 
Q 59.421875 11.28125 64.40625 15.921875 
L 64.40625 5.609375 
Q 59.234375 2.09375 53.4375 0.328125 
Q 47.65625 -1.421875 41.21875 -1.421875 
Q 24.65625 -1.421875 15.125 8.703125 
Q 5.609375 18.84375 5.609375 36.375 
Q 5.609375 53.953125 15.125 64.078125 
Q 24.65625 74.21875 41.21875 74.21875 
Q 47.75 74.21875 53.53125 72.484375 
Q 59.328125 70.75 64.40625 67.28125 
z
" id="DejaVuSans-43"/>
      <path d="M 54.890625 33.015625 
L 54.890625 0 
L 45.90625 0 
L 45.90625 32.71875 
Q 45.90625 40.484375 42.875 44.328125 
Q 39.84375 48.1875 33.796875 48.1875 
Q 26.515625 48.1875 22.3125 43.546875 
Q 18.109375 38.921875 18.109375 30.90625 
L 18.109375 0 
L 9.078125 0 
L 9.078125 75.984375 
L 18.109375 75.984375 
L 18.109375 46.1875 
Q 21.34375 51.125 25.703125 53.5625 
Q 30.078125 56 35.796875 56 
Q 45.21875 56 50.046875 50.171875 
Q 54.890625 44.34375 54.890625 33.015625 
z
" id="DejaVuSans-68"/>
      <path d="M 45.40625 27.984375 
Q 45.40625 37.75 41.375 43.109375 
Q 37.359375 48.484375 30.078125 48.484375 
Q 22.859375 48.484375 18.828125 43.109375 
Q 14.796875 37.75 14.796875 27.984375 
Q 14.796875 18.265625 18.828125 12.890625 
Q 22.859375 7.515625 30.078125 7.515625 
Q 37.359375 7.515625 41.375 12.890625 
Q 45.40625 18.265625 45.40625 27.984375 
z
M 54.390625 6.78125 
Q 54.390625 -7.171875 48.1875 -13.984375 
Q 42 -20.796875 29.203125 -20.796875 
Q 24.46875 -20.796875 20.265625 -20.09375 
Q 16.0625 -19.390625 12.109375 -17.921875 
L 12.109375 -9.1875 
Q 16.0625 -11.328125 19.921875 -12.34375 
Q 23.78125 -13.375 27.78125 -13.375 
Q 36.625 -13.375 41.015625 -8.765625 
Q 45.40625 -4.15625 45.40625 5.171875 
L 45.40625 9.625 
Q 42.625 4.78125 38.28125 2.390625 
Q 33.9375 0 27.875 0 
Q 17.828125 0 11.671875 7.65625 
Q 5.515625 15.328125 5.515625 27.984375 
Q 5.515625 40.671875 11.671875 48.328125 
Q 17.828125 56 27.875 56 
Q 33.9375 56 38.28125 53.609375 
Q 42.625 51.21875 45.40625 46.390625 
L 45.40625 54.6875 
L 54.390625 54.6875 
z
" id="DejaVuSans-67"/>
     </defs>
     <g transform="translate(767.785 54.487187)scale(0.14 -0.14)">
      <use xlink:href="#DejaVuSans-46"/>
      <use x="57.519531" xlink:href="#DejaVuSans-6c"/>
      <use x="85.302734" xlink:href="#DejaVuSans-79"/>
      <use x="144.482422" xlink:href="#DejaVuSans-20"/>
      <use x="176.269531" xlink:href="#DejaVuSans-66"/>
      <use x="211.474609" xlink:href="#DejaVuSans-72"/>
      <use x="252.556641" xlink:href="#DejaVuSans-6f"/>
      <use x="313.738281" xlink:href="#DejaVuSans-6d"/>
      <use x="411.150391" xlink:href="#DejaVuSans-20"/>
      <use x="442.9375" xlink:href="#DejaVuSans-43"/>
      <use x="512.761719" xlink:href="#DejaVuSans-68"/>
      <use x="576.140625" xlink:href="#DejaVuSans-69"/>
      <use x="603.923828" xlink:href="#DejaVuSans-63"/>
      <use x="658.904297" xlink:href="#DejaVuSans-61"/>
      <use x="720.183594" xlink:href="#DejaVuSans-67"/>
      <use x="783.660156" xlink:href="#DejaVuSans-6f"/>
     </g>
    </g>
    <g id="line2d_24">
     <path d="M 728.585 70.136562 
L 756.585 70.136562 
" style="fill:none;stroke:#000000;stroke-dasharray:1.5,2.475;stroke-dashoffset:0;stroke-opacity:0.4;stroke-width:1.5;"/>
    </g>
    <g id="line2d_25"/>
    <g id="text_12">
     <!-- Low price -->
     <defs>
      <path d="M 9.8125 72.90625 
L 19.671875 72.90625 
L 19.671875 8.296875 
L 55.171875 8.296875 
L 55.171875 0 
L 9.8125 0 
z
" id="DejaVuSans-4c"/>
      <path d="M 4.203125 54.6875 
L 13.1875 54.6875 
L 24.421875 12.015625 
L 35.59375 54.6875 
L 46.1875 54.6875 
L 57.421875 12.015625 
L 68.609375 54.6875 
L 77.59375 54.6875 
L 63.28125 0 
L 52.6875 0 
L 40.921875 44.828125 
L 29.109375 0 
L 18.5 0 
z
" id="DejaVuSans-77"/>
      <path d="M 18.109375 8.203125 
L 18.109375 -20.796875 
L 9.078125 -20.796875 
L 9.078125 54.6875 
L 18.109375 54.6875 
L 18.109375 46.390625 
Q 20.953125 51.265625 25.265625 53.625 
Q 29.59375 56 35.59375 56 
Q 45.5625 56 51.78125 48.09375 
Q 58.015625 40.1875 58.015625 27.296875 
Q 58.015625 14.40625 51.78125 6.484375 
Q 45.5625 -1.421875 35.59375 -1.421875 
Q 29.59375 -1.421875 25.265625 0.953125 
Q 20.953125 3.328125 18.109375 8.203125 
z
M 48.6875 27.296875 
Q 48.6875 37.203125 44.609375 42.84375 
Q 40.53125 48.484375 33.40625 48.484375 
Q 26.265625 48.484375 22.1875 42.84375 
Q 18.109375 37.203125 18.109375 27.296875 
Q 18.109375 17.390625 22.1875 11.75 
Q 26.265625 6.109375 33.40625 6.109375 
Q 40.53125 6.109375 44.609375 11.75 
Q 48.6875 17.390625 48.6875 27.296875 
z
" id="DejaVuSans-70"/>
     </defs>
     <g transform="translate(767.785 75.036562)scale(0.14 -0.14)">
      <use xlink:href="#DejaVuSans-4c"/>
      <use x="55.697266" xlink:href="#DejaVuSans-6f"/>
      <use x="116.878906" xlink:href="#DejaVuSans-77"/>
      <use x="198.666016" xlink:href="#DejaVuSans-20"/>
      <use x="230.453125" xlink:href="#DejaVuSans-70"/>
      <use x="293.929688" xlink:href="#DejaVuSans-72"/>
      <use x="335.042969" xlink:href="#DejaVuSans-69"/>
      <use x="362.826172" xlink:href="#DejaVuSans-63"/>
      <use x="417.806641" xlink:href="#DejaVuSans-65"/>
     </g>
    </g>
    <g id="patch_5">
     <path d="M 728.585 95.585937 
L 756.585 95.585937 
L 756.585 85.785937 
L 728.585 85.785937 
z
" style="fill:#a6cee3;opacity:0.75;"/>
    </g>
    <g id="text_13">
     <!-- Airbnb cost -->
     <defs>
      <path d="M 34.1875 63.1875 
L 20.796875 26.90625 
L 47.609375 26.90625 
z
M 28.609375 72.90625 
L 39.796875 72.90625 
L 67.578125 0 
L 57.328125 0 
L 50.6875 18.703125 
L 17.828125 18.703125 
L 11.1875 0 
L 0.78125 0 
z
" id="DejaVuSans-41"/>
      <path d="M 48.6875 27.296875 
Q 48.6875 37.203125 44.609375 42.84375 
Q 40.53125 48.484375 33.40625 48.484375 
Q 26.265625 48.484375 22.1875 42.84375 
Q 18.109375 37.203125 18.109375 27.296875 
Q 18.109375 17.390625 22.1875 11.75 
Q 26.265625 6.109375 33.40625 6.109375 
Q 40.53125 6.109375 44.609375 11.75 
Q 48.6875 17.390625 48.6875 27.296875 
z
M 18.109375 46.390625 
Q 20.953125 51.265625 25.265625 53.625 
Q 29.59375 56 35.59375 56 
Q 45.5625 56 51.78125 48.09375 
Q 58.015625 40.1875 58.015625 27.296875 
Q 58.015625 14.40625 51.78125 6.484375 
Q 45.5625 -1.421875 35.59375 -1.421875 
Q 29.59375 -1.421875 25.265625 0.953125 
Q 20.953125 3.328125 18.109375 8.203125 
L 18.109375 0 
L 9.078125 0 
L 9.078125 75.984375 
L 18.109375 75.984375 
z
" id="DejaVuSans-62"/>
      <path d="M 18.3125 70.21875 
L 18.3125 54.6875 
L 36.8125 54.6875 
L 36.8125 47.703125 
L 18.3125 47.703125 
L 18.3125 18.015625 
Q 18.3125 11.328125 20.140625 9.421875 
Q 21.96875 7.515625 27.59375 7.515625 
L 36.8125 7.515625 
L 36.8125 0 
L 27.59375 0 
Q 17.1875 0 13.234375 3.875 
Q 9.28125 7.765625 9.28125 18.015625 
L 9.28125 47.703125 
L 2.6875 47.703125 
L 2.6875 54.6875 
L 9.28125 54.6875 
L 9.28125 70.21875 
z
" id="DejaVuSans-74"/>
     </defs>
     <g transform="translate(767.785 95.585937)scale(0.14 -0.14)">
      <use xlink:href="#DejaVuSans-41"/>
      <use x="68.408203" xlink:href="#DejaVuSans-69"/>
      <use x="96.191406" xlink:href="#DejaVuSans-72"/>
      <use x="137.304688" xlink:href="#DejaVuSans-62"/>
      <use x="200.78125" xlink:href="#DejaVuSans-6e"/>
      <use x="264.160156" xlink:href="#DejaVuSans-62"/>
      <use x="327.636719" xlink:href="#DejaVuSans-20"/>
      <use x="359.423828" xlink:href="#DejaVuSans-63"/>
      <use x="414.404297" xlink:href="#DejaVuSans-6f"/>
      <use x="475.585938" xlink:href="#DejaVuSans-73"/>
      <use x="527.685547" xlink:href="#DejaVuSans-74"/>
     </g>
    </g>
    <g id="patch_6">
     <path d="M 728.585 116.135312 
L 756.585 116.135312 
L 756.585 106.335312 
L 728.585 106.335312 
z
" style="fill:#1f78b4;opacity:0.75;"/>
    </g>
    <g id="text_14">
     <!-- Secondary cost -->
     <defs>
      <path d="M 53.515625 70.515625 
L 53.515625 60.890625 
Q 47.90625 63.578125 42.921875 64.890625 
Q 37.9375 66.21875 33.296875 66.21875 
Q 25.25 66.21875 20.875 63.09375 
Q 16.5 59.96875 16.5 54.203125 
Q 16.5 49.359375 19.40625 46.890625 
Q 22.3125 44.4375 30.421875 42.921875 
L 36.375 41.703125 
Q 47.40625 39.59375 52.65625 34.296875 
Q 57.90625 29 57.90625 20.125 
Q 57.90625 9.515625 50.796875 4.046875 
Q 43.703125 -1.421875 29.984375 -1.421875 
Q 24.8125 -1.421875 18.96875 -0.25 
Q 13.140625 0.921875 6.890625 3.21875 
L 6.890625 13.375 
Q 12.890625 10.015625 18.65625 8.296875 
Q 24.421875 6.59375 29.984375 6.59375 
Q 38.421875 6.59375 43.015625 9.90625 
Q 47.609375 13.234375 47.609375 19.390625 
Q 47.609375 24.75 44.3125 27.78125 
Q 41.015625 30.8125 33.5 32.328125 
L 27.484375 33.5 
Q 16.453125 35.6875 11.515625 40.375 
Q 6.59375 45.0625 6.59375 53.421875 
Q 6.59375 63.09375 13.40625 68.65625 
Q 20.21875 74.21875 32.171875 74.21875 
Q 37.3125 74.21875 42.625 73.28125 
Q 47.953125 72.359375 53.515625 70.515625 
z
" id="DejaVuSans-53"/>
     </defs>
     <g transform="translate(767.785 116.135312)scale(0.14 -0.14)">
      <use xlink:href="#DejaVuSans-53"/>
      <use x="63.476562" xlink:href="#DejaVuSans-65"/>
      <use x="125" xlink:href="#DejaVuSans-63"/>
      <use x="179.980469" xlink:href="#DejaVuSans-6f"/>
      <use x="241.162109" xlink:href="#DejaVuSans-6e"/>
      <use x="304.541016" xlink:href="#DejaVuSans-64"/>
      <use x="368.017578" xlink:href="#DejaVuSans-61"/>
      <use x="429.296875" xlink:href="#DejaVuSans-72"/>
      <use x="470.410156" xlink:href="#DejaVuSans-79"/>
      <use x="529.589844" xlink:href="#DejaVuSans-20"/>
      <use x="561.376953" xlink:href="#DejaVuSans-63"/>
      <use x="616.357422" xlink:href="#DejaVuSans-6f"/>
      <use x="677.539062" xlink:href="#DejaVuSans-73"/>
      <use x="729.638672" xlink:href="#DejaVuSans-74"/>
     </g>
    </g>
   </g>
  </g>
  <g id="axes_2">
   <g id="patch_7">
    <path d="M 63.561875 500.3 
L 900.561875 500.3 
L 900.561875 373.131169 
L 63.561875 373.131169 
z
" style="fill:#ffffff;"/>
   </g>
   <g id="PolyCollection_3">
    <path clip-path="url(#p5ddf505eee)" d="M 101.60733 469.078131 
L 101.60733 500.3 
L 108.341038 500.3 
L 115.074747 500.3 
L 121.808456 500.3 
L 128.542165 500.3 
L 135.275873 500.3 
L 142.009582 500.3 
L 148.743291 500.3 
L 155.477 500.3 
L 162.210708 500.3 
L 168.944417 500.3 
L 175.678126 500.3 
L 182.411835 500.3 
L 189.145544 500.3 
L 195.879252 500.3 
L 202.612961 500.3 
L 209.34667 500.3 
L 216.080379 500.3 
L 222.814087 500.3 
L 229.547796 500.3 
L 236.281505 500.3 
L 243.015214 500.3 
L 249.748922 500.3 
L 256.482631 500.3 
L 263.21634 500.3 
L 269.950049 500.3 
L 276.683758 500.3 
L 283.417466 500.3 
L 290.151175 500.3 
L 296.884884 500.3 
L 303.618593 500.3 
L 310.352301 500.3 
L 317.08601 500.3 
L 323.819719 500.3 
L 330.553428 500.3 
L 337.287136 500.3 
L 344.020845 500.3 
L 350.754554 500.3 
L 357.488263 500.3 
L 364.221972 500.3 
L 370.95568 500.3 
L 377.689389 500.3 
L 384.423098 500.3 
L 391.156807 500.3 
L 397.890515 500.3 
L 404.624224 500.3 
L 411.357933 500.3 
L 418.091642 500.3 
L 424.82535 500.3 
L 431.559059 500.3 
L 438.292768 500.3 
L 445.026477 500.3 
L 451.760186 500.3 
L 458.493894 500.3 
L 465.227603 500.3 
L 471.961312 500.3 
L 478.695021 500.3 
L 485.428729 500.3 
L 492.162438 500.3 
L 498.896147 500.3 
L 505.629856 500.3 
L 512.363564 500.3 
L 519.097273 500.3 
L 525.830982 500.3 
L 532.564691 500.3 
L 539.2984 500.3 
L 546.032108 500.3 
L 552.765817 500.3 
L 559.499526 500.3 
L 566.233235 500.3 
L 572.966943 500.3 
L 579.700652 500.3 
L 586.434361 500.3 
L 593.16807 500.3 
L 599.901778 500.3 
L 606.635487 500.3 
L 613.369196 500.3 
L 620.102905 500.3 
L 626.836614 500.3 
L 633.570322 500.3 
L 640.304031 500.3 
L 647.03774 500.3 
L 653.771449 500.3 
L 660.505157 500.3 
L 667.238866 500.3 
L 673.972575 500.3 
L 680.706284 500.3 
L 687.439992 500.3 
L 694.173701 500.3 
L 700.90741 500.3 
L 707.641119 500.3 
L 714.374828 500.3 
L 721.108536 500.3 
L 727.842245 500.3 
L 734.575954 500.3 
L 741.309663 500.3 
L 748.043371 500.3 
L 754.77708 500.3 
L 761.510789 500.3 
L 768.244498 500.3 
L 774.978206 500.3 
L 781.711915 500.3 
L 788.445624 500.3 
L 795.179333 500.3 
L 801.913042 500.3 
L 808.64675 500.3 
L 815.380459 500.3 
L 822.114168 500.3 
L 828.847877 500.3 
L 835.581585 500.3 
L 842.315294 500.3 
L 849.049003 500.3 
L 855.782712 500.3 
L 862.51642 500.3 
L 862.51642 431.244774 
L 862.51642 431.244774 
L 855.782712 431.095094 
L 849.049003 431.143358 
L 842.315294 430.951085 
L 835.581585 430.781406 
L 828.847877 430.750479 
L 822.114168 430.422045 
L 815.380459 430.17532 
L 808.64675 429.88583 
L 801.913042 429.703423 
L 795.179333 429.366471 
L 788.445624 429.226939 
L 781.711915 429.057775 
L 774.978206 428.560615 
L 768.244498 428.006442 
L 761.510789 427.346713 
L 754.77708 426.800078 
L 748.043371 426.043321 
L 741.309663 425.448059 
L 734.575954 424.841126 
L 727.842245 423.94619 
L 721.108536 422.993046 
L 714.374828 422.25294 
L 707.641119 421.401121 
L 700.90741 420.808474 
L 694.173701 420.341767 
L 687.439992 419.903558 
L 680.706284 419.4975 
L 673.972575 419.204842 
L 667.238866 419.167083 
L 660.505157 419.035758 
L 653.771449 418.791017 
L 647.03774 418.794982 
L 640.304031 418.7571 
L 633.570322 418.76692 
L 626.836614 418.989607 
L 620.102905 419.357815 
L 613.369196 419.579597 
L 606.635487 419.980487 
L 599.901778 420.364141 
L 593.16807 420.847881 
L 586.434361 421.221718 
L 579.700652 421.38812 
L 572.966943 421.665974 
L 566.233235 421.823794 
L 559.499526 421.960195 
L 552.765817 422.225837 
L 546.032108 422.419778 
L 539.2984 422.735297 
L 532.564691 422.933721 
L 525.830982 422.884056 
L 519.097273 422.8671 
L 512.363564 422.740123 
L 505.629856 422.789321 
L 498.896147 422.963526 
L 492.162438 423.045717 
L 485.428729 423.071095 
L 478.695021 423.321245 
L 471.961312 423.573725 
L 465.227603 423.773 
L 458.493894 424.199249 
L 451.760186 424.439306 
L 445.026477 424.616997 
L 438.292768 424.67124 
L 431.559059 425.006705 
L 424.82535 425.76402 
L 418.091642 426.42611 
L 411.357933 427.32567 
L 404.624224 428.125481 
L 397.890515 428.793981 
L 391.156807 429.457574 
L 384.423098 430.141499 
L 377.689389 430.915961 
L 370.95568 431.724199 
L 364.221972 432.634694 
L 357.488263 433.613497 
L 350.754554 434.73689 
L 344.020845 435.568889 
L 337.287136 436.700905 
L 330.553428 437.762195 
L 323.819719 438.759739 
L 317.08601 439.945408 
L 310.352301 441.009551 
L 303.618593 441.886933 
L 296.884884 442.702921 
L 290.151175 443.495734 
L 283.417466 444.452722 
L 276.683758 445.201196 
L 269.950049 445.796274 
L 263.21634 446.483132 
L 256.482631 446.961751 
L 249.748922 447.432193 
L 243.015214 448.386328 
L 236.281505 449.092231 
L 229.547796 449.753236 
L 222.814087 450.384293 
L 216.080379 450.911349 
L 209.34667 451.512762 
L 202.612961 451.750372 
L 195.879252 452.673036 
L 189.145544 453.698021 
L 182.411835 454.77866 
L 175.678126 456.142578 
L 168.944417 457.538377 
L 162.210708 458.800485 
L 155.477 459.978023 
L 148.743291 461.236392 
L 142.009582 462.419852 
L 135.275873 463.542001 
L 128.542165 464.691225 
L 121.808456 465.65129 
L 115.074747 466.634938 
L 108.341038 467.656129 
L 101.60733 469.078131 
z
" style="fill:#deebf7;fill-opacity:0.5;"/>
   </g>
   <g id="PolyCollection_4">
    <path clip-path="url(#p5ddf505eee)" d="M 101.60733 451.71088 
L 101.60733 469.078131 
L 108.341038 467.656129 
L 115.074747 466.634938 
L 121.808456 465.65129 
L 128.542165 464.691225 
L 135.275873 463.542001 
L 142.009582 462.419852 
L 148.743291 461.236392 
L 155.477 459.978023 
L 162.210708 458.800485 
L 168.944417 457.538377 
L 175.678126 456.142578 
L 182.411835 454.77866 
L 189.145544 453.698021 
L 195.879252 452.673036 
L 202.612961 451.750372 
L 209.34667 451.512762 
L 216.080379 450.911349 
L 222.814087 450.384293 
L 229.547796 449.753236 
L 236.281505 449.092231 
L 243.015214 448.386328 
L 249.748922 447.432193 
L 256.482631 446.961751 
L 263.21634 446.483132 
L 269.950049 445.796274 
L 276.683758 445.201196 
L 283.417466 444.452722 
L 290.151175 443.495734 
L 296.884884 442.702921 
L 303.618593 441.886933 
L 310.352301 441.009551 
L 317.08601 439.945408 
L 323.819719 438.759739 
L 330.553428 437.762195 
L 337.287136 436.700905 
L 344.020845 435.568889 
L 350.754554 434.73689 
L 357.488263 433.613497 
L 364.221972 432.634694 
L 370.95568 431.724199 
L 377.689389 430.915961 
L 384.423098 430.141499 
L 391.156807 429.457574 
L 397.890515 428.793981 
L 404.624224 428.125481 
L 411.357933 427.32567 
L 418.091642 426.42611 
L 424.82535 425.76402 
L 431.559059 425.006705 
L 438.292768 424.67124 
L 445.026477 424.616997 
L 451.760186 424.439306 
L 458.493894 424.199249 
L 465.227603 423.773 
L 471.961312 423.573725 
L 478.695021 423.321245 
L 485.428729 423.071095 
L 492.162438 423.045717 
L 498.896147 422.963526 
L 505.629856 422.789321 
L 512.363564 422.740123 
L 519.097273 422.8671 
L 525.830982 422.884056 
L 532.564691 422.933721 
L 539.2984 422.735297 
L 546.032108 422.419778 
L 552.765817 422.225837 
L 559.499526 421.960195 
L 566.233235 421.823794 
L 572.966943 421.665974 
L 579.700652 421.38812 
L 586.434361 421.221718 
L 593.16807 420.847881 
L 599.901778 420.364141 
L 606.635487 419.980487 
L 613.369196 419.579597 
L 620.102905 419.357815 
L 626.836614 418.989607 
L 633.570322 418.76692 
L 640.304031 418.7571 
L 647.03774 418.794982 
L 653.771449 418.791017 
L 660.505157 419.035758 
L 667.238866 419.167083 
L 673.972575 419.204842 
L 680.706284 419.4975 
L 687.439992 419.903558 
L 694.173701 420.341767 
L 700.90741 420.808474 
L 707.641119 421.401121 
L 714.374828 422.25294 
L 721.108536 422.993046 
L 727.842245 423.94619 
L 734.575954 424.841126 
L 741.309663 425.448059 
L 748.043371 426.043321 
L 754.77708 426.800078 
L 761.510789 427.346713 
L 768.244498 428.006442 
L 774.978206 428.560615 
L 781.711915 429.057775 
L 788.445624 429.226939 
L 795.179333 429.366471 
L 801.913042 429.703423 
L 808.64675 429.88583 
L 815.380459 430.17532 
L 822.114168 430.422045 
L 828.847877 430.750479 
L 835.581585 430.781406 
L 842.315294 430.951085 
L 849.049003 431.143358 
L 855.782712 431.095094 
L 862.51642 431.244774 
L 862.51642 380.429933 
L 862.51642 380.429933 
L 855.782712 380.700004 
L 849.049003 381.483817 
L 842.315294 382.095311 
L 835.581585 382.774769 
L 828.847877 383.560617 
L 822.114168 383.800336 
L 815.380459 384.15113 
L 808.64675 384.399228 
L 801.913042 384.835259 
L 795.179333 385.100926 
L 788.445624 385.435687 
L 781.711915 385.763351 
L 774.978206 385.837555 
L 768.244498 385.759156 
L 761.510789 385.337982 
L 754.77708 385.18866 
L 748.043371 384.586856 
L 741.309663 384.107196 
L 734.575954 383.63408 
L 727.842245 382.923544 
L 721.108536 382.169139 
L 714.374828 381.686412 
L 707.641119 381.073183 
L 700.90741 380.6665 
L 694.173701 380.420372 
L 687.439992 380.33398 
L 680.706284 380.186392 
L 673.972575 380.135401 
L 667.238866 380.331295 
L 660.505157 380.512912 
L 653.771449 380.614348 
L 647.03774 380.91592 
L 640.304031 381.071627 
L 633.570322 381.358823 
L 626.836614 381.921207 
L 620.102905 382.821715 
L 613.369196 383.450685 
L 606.635487 384.147902 
L 599.901778 384.831177 
L 593.16807 385.566576 
L 586.434361 386.117301 
L 579.700652 386.531915 
L 572.966943 387.006481 
L 566.233235 387.430279 
L 559.499526 387.782214 
L 552.765817 388.320324 
L 546.032108 388.788286 
L 539.2984 389.389877 
L 532.564691 389.840236 
L 525.830982 390.043447 
L 519.097273 390.017442 
L 512.363564 390.004971 
L 505.629856 390.203433 
L 498.896147 390.907812 
L 492.162438 391.470936 
L 485.428729 391.963686 
L 478.695021 392.4937 
L 471.961312 393.102097 
L 465.227603 393.61113 
L 458.493894 394.362523 
L 451.760186 395.033617 
L 445.026477 395.709284 
L 438.292768 396.313229 
L 431.559059 396.894666 
L 424.82535 398.012857 
L 418.091642 399.05932 
L 411.357933 400.262353 
L 404.624224 401.358005 
L 397.890515 401.865008 
L 391.156807 402.378178 
L 384.423098 402.909352 
L 377.689389 403.729676 
L 370.95568 404.496284 
L 364.221972 405.326691 
L 357.488263 406.511337 
L 350.754554 407.592246 
L 344.020845 405.522436 
L 337.287136 406.579622 
L 330.553428 407.70517 
L 323.819719 408.629324 
L 317.08601 409.867365 
L 310.352301 411.022738 
L 303.618593 412.010334 
L 296.884884 412.927875 
L 290.151175 413.883143 
L 283.417466 415.067364 
L 276.683758 416.017435 
L 269.950049 416.733325 
L 263.21634 417.786259 
L 256.482631 418.272206 
L 249.748922 418.656382 
L 243.015214 422.495436 
L 236.281505 423.454172 
L 229.547796 424.306819 
L 222.814087 425.180647 
L 216.080379 425.847792 
L 209.34667 426.621252 
L 202.612961 423.889454 
L 195.879252 425.187133 
L 189.145544 426.585602 
L 182.411835 428.05251 
L 175.678126 429.988825 
L 168.944417 432.07092 
L 162.210708 433.823378 
L 155.477 435.558196 
L 148.743291 437.437503 
L 142.009582 439.161142 
L 135.275873 440.619184 
L 128.542165 442.243491 
L 121.808456 443.619093 
L 115.074747 445.138367 
L 108.341038 446.664689 
L 101.60733 451.71088 
z
" style="fill:#f7fbff;fill-opacity:0.5;"/>
   </g>
   <g id="matplotlib.axis_3">
    <g id="xtick_9">
     <g id="line2d_26">
      <g>
       <use style="stroke:#000000;stroke-width:0.8;" x="101.60733" xlink:href="#m40b4b52a41" y="500.3"/>
      </g>
     </g>
     <g id="text_15">
      <!-- 2018-12-15 -->
      <defs>
       <path d="M 4.890625 31.390625 
L 31.203125 31.390625 
L 31.203125 23.390625 
L 4.890625 23.390625 
z
" id="DejaVuSans-2d"/>
       <path d="M 10.796875 72.90625 
L 49.515625 72.90625 
L 49.515625 64.59375 
L 19.828125 64.59375 
L 19.828125 46.734375 
Q 21.96875 47.46875 24.109375 47.828125 
Q 26.265625 48.1875 28.421875 48.1875 
Q 40.625 48.1875 47.75 41.5 
Q 54.890625 34.8125 54.890625 23.390625 
Q 54.890625 11.625 47.5625 5.09375 
Q 40.234375 -1.421875 26.90625 -1.421875 
Q 22.3125 -1.421875 17.546875 -0.640625 
Q 12.796875 0.140625 7.71875 1.703125 
L 7.71875 11.625 
Q 12.109375 9.234375 16.796875 8.0625 
Q 21.484375 6.890625 26.703125 6.890625 
Q 35.15625 6.890625 40.078125 11.328125 
Q 45.015625 15.765625 45.015625 23.390625 
Q 45.015625 31 40.078125 35.4375 
Q 35.15625 39.890625 26.703125 39.890625 
Q 22.75 39.890625 18.8125 39.015625 
Q 14.890625 38.140625 10.796875 36.28125 
z
" id="DejaVuSans-35"/>
      </defs>
      <g transform="translate(50.237878 542.938252)rotate(-30)scale(0.1 -0.1)">
       <use xlink:href="#DejaVuSans-32"/>
       <use x="63.623047" xlink:href="#DejaVuSans-30"/>
       <use x="127.246094" xlink:href="#DejaVuSans-31"/>
       <use x="190.869141" xlink:href="#DejaVuSans-38"/>
       <use x="254.492188" xlink:href="#DejaVuSans-2d"/>
       <use x="290.576172" xlink:href="#DejaVuSans-31"/>
       <use x="354.199219" xlink:href="#DejaVuSans-32"/>
       <use x="417.822266" xlink:href="#DejaVuSans-2d"/>
       <use x="453.90625" xlink:href="#DejaVuSans-31"/>
       <use x="517.529297" xlink:href="#DejaVuSans-35"/>
      </g>
     </g>
    </g>
    <g id="xtick_10">
     <g id="line2d_27">
      <g>
       <use style="stroke:#000000;stroke-width:0.8;" x="216.080379" xlink:href="#m40b4b52a41" y="500.3"/>
      </g>
     </g>
     <g id="text_16">
      <!-- 2019-01-01 -->
      <defs>
       <path d="M 10.984375 1.515625 
L 10.984375 10.5 
Q 14.703125 8.734375 18.5 7.8125 
Q 22.3125 6.890625 25.984375 6.890625 
Q 35.75 6.890625 40.890625 13.453125 
Q 46.046875 20.015625 46.78125 33.40625 
Q 43.953125 29.203125 39.59375 26.953125 
Q 35.25 24.703125 29.984375 24.703125 
Q 19.046875 24.703125 12.671875 31.3125 
Q 6.296875 37.9375 6.296875 49.421875 
Q 6.296875 60.640625 12.9375 67.421875 
Q 19.578125 74.21875 30.609375 74.21875 
Q 43.265625 74.21875 49.921875 64.515625 
Q 56.59375 54.828125 56.59375 36.375 
Q 56.59375 19.140625 48.40625 8.859375 
Q 40.234375 -1.421875 26.421875 -1.421875 
Q 22.703125 -1.421875 18.890625 -0.6875 
Q 15.09375 0.046875 10.984375 1.515625 
z
M 30.609375 32.421875 
Q 37.25 32.421875 41.125 36.953125 
Q 45.015625 41.5 45.015625 49.421875 
Q 45.015625 57.28125 41.125 61.84375 
Q 37.25 66.40625 30.609375 66.40625 
Q 23.96875 66.40625 20.09375 61.84375 
Q 16.21875 57.28125 16.21875 49.421875 
Q 16.21875 41.5 20.09375 36.953125 
Q 23.96875 32.421875 30.609375 32.421875 
z
" id="DejaVuSans-39"/>
      </defs>
      <g transform="translate(164.710927 542.938252)rotate(-30)scale(0.1 -0.1)">
       <use xlink:href="#DejaVuSans-32"/>
       <use x="63.623047" xlink:href="#DejaVuSans-30"/>
       <use x="127.246094" xlink:href="#DejaVuSans-31"/>
       <use x="190.869141" xlink:href="#DejaVuSans-39"/>
       <use x="254.492188" xlink:href="#DejaVuSans-2d"/>
       <use x="290.576172" xlink:href="#DejaVuSans-30"/>
       <use x="354.199219" xlink:href="#DejaVuSans-31"/>
       <use x="417.822266" xlink:href="#DejaVuSans-2d"/>
       <use x="453.90625" xlink:href="#DejaVuSans-30"/>
       <use x="517.529297" xlink:href="#DejaVuSans-31"/>
      </g>
     </g>
    </g>
    <g id="xtick_11">
     <g id="line2d_28">
      <g>
       <use style="stroke:#000000;stroke-width:0.8;" x="310.352301" xlink:href="#m40b4b52a41" y="500.3"/>
      </g>
     </g>
     <g id="text_17">
      <!-- 2019-01-15 -->
      <g transform="translate(258.98285 542.938252)rotate(-30)scale(0.1 -0.1)">
       <use xlink:href="#DejaVuSans-32"/>
       <use x="63.623047" xlink:href="#DejaVuSans-30"/>
       <use x="127.246094" xlink:href="#DejaVuSans-31"/>
       <use x="190.869141" xlink:href="#DejaVuSans-39"/>
       <use x="254.492188" xlink:href="#DejaVuSans-2d"/>
       <use x="290.576172" xlink:href="#DejaVuSans-30"/>
       <use x="354.199219" xlink:href="#DejaVuSans-31"/>
       <use x="417.822266" xlink:href="#DejaVuSans-2d"/>
       <use x="453.90625" xlink:href="#DejaVuSans-31"/>
       <use x="517.529297" xlink:href="#DejaVuSans-35"/>
      </g>
     </g>
    </g>
    <g id="xtick_12">
     <g id="line2d_29">
      <g>
       <use style="stroke:#000000;stroke-width:0.8;" x="424.82535" xlink:href="#m40b4b52a41" y="500.3"/>
      </g>
     </g>
     <g id="text_18">
      <!-- 2019-02-01 -->
      <g transform="translate(373.455899 542.938252)rotate(-30)scale(0.1 -0.1)">
       <use xlink:href="#DejaVuSans-32"/>
       <use x="63.623047" xlink:href="#DejaVuSans-30"/>
       <use x="127.246094" xlink:href="#DejaVuSans-31"/>
       <use x="190.869141" xlink:href="#DejaVuSans-39"/>
       <use x="254.492188" xlink:href="#DejaVuSans-2d"/>
       <use x="290.576172" xlink:href="#DejaVuSans-30"/>
       <use x="354.199219" xlink:href="#DejaVuSans-32"/>
       <use x="417.822266" xlink:href="#DejaVuSans-2d"/>
       <use x="453.90625" xlink:href="#DejaVuSans-30"/>
       <use x="517.529297" xlink:href="#DejaVuSans-31"/>
      </g>
     </g>
    </g>
    <g id="xtick_13">
     <g id="line2d_30">
      <g>
       <use style="stroke:#000000;stroke-width:0.8;" x="519.097273" xlink:href="#m40b4b52a41" y="500.3"/>
      </g>
     </g>
     <g id="text_19">
      <!-- 2019-02-15 -->
      <g transform="translate(467.727822 542.938252)rotate(-30)scale(0.1 -0.1)">
       <use xlink:href="#DejaVuSans-32"/>
       <use x="63.623047" xlink:href="#DejaVuSans-30"/>
       <use x="127.246094" xlink:href="#DejaVuSans-31"/>
       <use x="190.869141" xlink:href="#DejaVuSans-39"/>
       <use x="254.492188" xlink:href="#DejaVuSans-2d"/>
       <use x="290.576172" xlink:href="#DejaVuSans-30"/>
       <use x="354.199219" xlink:href="#DejaVuSans-32"/>
       <use x="417.822266" xlink:href="#DejaVuSans-2d"/>
       <use x="453.90625" xlink:href="#DejaVuSans-31"/>
       <use x="517.529297" xlink:href="#DejaVuSans-35"/>
      </g>
     </g>
    </g>
    <g id="xtick_14">
     <g id="line2d_31">
      <g>
       <use style="stroke:#000000;stroke-width:0.8;" x="613.369196" xlink:href="#m40b4b52a41" y="500.3"/>
      </g>
     </g>
     <g id="text_20">
      <!-- 2019-03-01 -->
      <defs>
       <path d="M 40.578125 39.3125 
Q 47.65625 37.796875 51.625 33 
Q 55.609375 28.21875 55.609375 21.1875 
Q 55.609375 10.40625 48.1875 4.484375 
Q 40.765625 -1.421875 27.09375 -1.421875 
Q 22.515625 -1.421875 17.65625 -0.515625 
Q 12.796875 0.390625 7.625 2.203125 
L 7.625 11.71875 
Q 11.71875 9.328125 16.59375 8.109375 
Q 21.484375 6.890625 26.8125 6.890625 
Q 36.078125 6.890625 40.9375 10.546875 
Q 45.796875 14.203125 45.796875 21.1875 
Q 45.796875 27.640625 41.28125 31.265625 
Q 36.765625 34.90625 28.71875 34.90625 
L 20.21875 34.90625 
L 20.21875 43.015625 
L 29.109375 43.015625 
Q 36.375 43.015625 40.234375 45.921875 
Q 44.09375 48.828125 44.09375 54.296875 
Q 44.09375 59.90625 40.109375 62.90625 
Q 36.140625 65.921875 28.71875 65.921875 
Q 24.65625 65.921875 20.015625 65.03125 
Q 15.375 64.15625 9.8125 62.3125 
L 9.8125 71.09375 
Q 15.4375 72.65625 20.34375 73.4375 
Q 25.25 74.21875 29.59375 74.21875 
Q 40.828125 74.21875 47.359375 69.109375 
Q 53.90625 64.015625 53.90625 55.328125 
Q 53.90625 49.265625 50.4375 45.09375 
Q 46.96875 40.921875 40.578125 39.3125 
z
" id="DejaVuSans-33"/>
      </defs>
      <g transform="translate(561.999745 542.938252)rotate(-30)scale(0.1 -0.1)">
       <use xlink:href="#DejaVuSans-32"/>
       <use x="63.623047" xlink:href="#DejaVuSans-30"/>
       <use x="127.246094" xlink:href="#DejaVuSans-31"/>
       <use x="190.869141" xlink:href="#DejaVuSans-39"/>
       <use x="254.492188" xlink:href="#DejaVuSans-2d"/>
       <use x="290.576172" xlink:href="#DejaVuSans-30"/>
       <use x="354.199219" xlink:href="#DejaVuSans-33"/>
       <use x="417.822266" xlink:href="#DejaVuSans-2d"/>
       <use x="453.90625" xlink:href="#DejaVuSans-30"/>
       <use x="517.529297" xlink:href="#DejaVuSans-31"/>
      </g>
     </g>
    </g>
    <g id="xtick_15">
     <g id="line2d_32">
      <g>
       <use style="stroke:#000000;stroke-width:0.8;" x="707.641119" xlink:href="#m40b4b52a41" y="500.3"/>
      </g>
     </g>
     <g id="text_21">
      <!-- 2019-03-15 -->
      <g transform="translate(656.271667 542.938252)rotate(-30)scale(0.1 -0.1)">
       <use xlink:href="#DejaVuSans-32"/>
       <use x="63.623047" xlink:href="#DejaVuSans-30"/>
       <use x="127.246094" xlink:href="#DejaVuSans-31"/>
       <use x="190.869141" xlink:href="#DejaVuSans-39"/>
       <use x="254.492188" xlink:href="#DejaVuSans-2d"/>
       <use x="290.576172" xlink:href="#DejaVuSans-30"/>
       <use x="354.199219" xlink:href="#DejaVuSans-33"/>
       <use x="417.822266" xlink:href="#DejaVuSans-2d"/>
       <use x="453.90625" xlink:href="#DejaVuSans-31"/>
       <use x="517.529297" xlink:href="#DejaVuSans-35"/>
      </g>
     </g>
    </g>
    <g id="xtick_16">
     <g id="line2d_33">
      <g>
       <use style="stroke:#000000;stroke-width:0.8;" x="822.114168" xlink:href="#m40b4b52a41" y="500.3"/>
      </g>
     </g>
     <g id="text_22">
      <!-- 2019-04-01 -->
      <g transform="translate(770.744716 542.938252)rotate(-30)scale(0.1 -0.1)">
       <use xlink:href="#DejaVuSans-32"/>
       <use x="63.623047" xlink:href="#DejaVuSans-30"/>
       <use x="127.246094" xlink:href="#DejaVuSans-31"/>
       <use x="190.869141" xlink:href="#DejaVuSans-39"/>
       <use x="254.492188" xlink:href="#DejaVuSans-2d"/>
       <use x="290.576172" xlink:href="#DejaVuSans-30"/>
       <use x="354.199219" xlink:href="#DejaVuSans-34"/>
       <use x="417.822266" xlink:href="#DejaVuSans-2d"/>
       <use x="453.90625" xlink:href="#DejaVuSans-30"/>
       <use x="517.529297" xlink:href="#DejaVuSans-31"/>
      </g>
     </g>
    </g>
   </g>
   <g id="matplotlib.axis_4">
    <g id="ytick_9">
     <g id="line2d_34">
      <g>
       <use style="stroke:#000000;stroke-width:0.8;" x="63.561875" xlink:href="#mf4c9554c14" y="500.3"/>
      </g>
     </g>
     <g id="text_23">
      <!-- 0 -->
      <g transform="translate(50.199375 504.099219)scale(0.1 -0.1)">
       <use xlink:href="#DejaVuSans-30"/>
      </g>
     </g>
    </g>
    <g id="ytick_10">
     <g id="line2d_35">
      <g>
       <use style="stroke:#000000;stroke-width:0.8;" x="63.561875" xlink:href="#mf4c9554c14" y="449.432468"/>
      </g>
     </g>
     <g id="text_24">
      <!-- 20 -->
      <g transform="translate(43.836875 453.231686)scale(0.1 -0.1)">
       <use xlink:href="#DejaVuSans-32"/>
       <use x="63.623047" xlink:href="#DejaVuSans-30"/>
      </g>
     </g>
    </g>
    <g id="ytick_11">
     <g id="line2d_36">
      <g>
       <use style="stroke:#000000;stroke-width:0.8;" x="63.561875" xlink:href="#mf4c9554c14" y="398.564935"/>
      </g>
     </g>
     <g id="text_25">
      <!-- 40 -->
      <g transform="translate(43.836875 402.364154)scale(0.1 -0.1)">
       <use xlink:href="#DejaVuSans-34"/>
       <use x="63.623047" xlink:href="#DejaVuSans-30"/>
      </g>
     </g>
    </g>
    <g id="text_26">
     <!-- Snow depth (inches) -->
     <defs>
      <path d="M 31 75.875 
Q 24.46875 64.65625 21.28125 53.65625 
Q 18.109375 42.671875 18.109375 31.390625 
Q 18.109375 20.125 21.3125 9.0625 
Q 24.515625 -2 31 -13.1875 
L 23.1875 -13.1875 
Q 15.875 -1.703125 12.234375 9.375 
Q 8.59375 20.453125 8.59375 31.390625 
Q 8.59375 42.28125 12.203125 53.3125 
Q 15.828125 64.359375 23.1875 75.875 
z
" id="DejaVuSans-28"/>
      <path d="M 8.015625 75.875 
L 15.828125 75.875 
Q 23.140625 64.359375 26.78125 53.3125 
Q 30.421875 42.28125 30.421875 31.390625 
Q 30.421875 20.453125 26.78125 9.375 
Q 23.140625 -1.703125 15.828125 -13.1875 
L 8.015625 -13.1875 
Q 14.5 -2 17.703125 9.0625 
Q 20.90625 20.125 20.90625 31.390625 
Q 20.90625 42.671875 17.703125 53.65625 
Q 14.5 64.65625 8.015625 75.875 
z
" id="DejaVuSans-29"/>
     </defs>
     <g transform="translate(36.925312 508.510428)rotate(-90)scale(0.14 -0.14)">
      <use xlink:href="#DejaVuSans-53"/>
      <use x="63.476562" xlink:href="#DejaVuSans-6e"/>
      <use x="126.855469" xlink:href="#DejaVuSans-6f"/>
      <use x="188.037109" xlink:href="#DejaVuSans-77"/>
      <use x="269.824219" xlink:href="#DejaVuSans-20"/>
      <use x="301.611328" xlink:href="#DejaVuSans-64"/>
      <use x="365.087891" xlink:href="#DejaVuSans-65"/>
      <use x="426.611328" xlink:href="#DejaVuSans-70"/>
      <use x="490.087891" xlink:href="#DejaVuSans-74"/>
      <use x="529.296875" xlink:href="#DejaVuSans-68"/>
      <use x="592.675781" xlink:href="#DejaVuSans-20"/>
      <use x="624.462891" xlink:href="#DejaVuSans-28"/>
      <use x="663.476562" xlink:href="#DejaVuSans-69"/>
      <use x="691.259766" xlink:href="#DejaVuSans-6e"/>
      <use x="754.638672" xlink:href="#DejaVuSans-63"/>
      <use x="809.619141" xlink:href="#DejaVuSans-68"/>
      <use x="872.998047" xlink:href="#DejaVuSans-65"/>
      <use x="934.521484" xlink:href="#DejaVuSans-73"/>
      <use x="986.621094" xlink:href="#DejaVuSans-29"/>
     </g>
    </g>
   </g>
   <g id="line2d_37">
    <path clip-path="url(#p5ddf505eee)" d="M 101.60733 486.445382 
L 108.341038 488.64757 
L 115.074747 488.131509 
L 121.808456 487.683487 
L 128.542165 487.138959 
L 135.275873 486.464818 
L 142.009582 485.678561 
L 148.743291 485.03528 
L 155.477 484.397849 
L 162.210708 483.777591 
L 168.944417 483.005833 
L 175.678126 482.296331 
L 182.411835 481.504809 
L 189.145544 480.81044 
L 195.879252 480.15894 
L 202.612961 479.61129 
L 209.34667 476.404272 
L 216.080379 475.974905 
L 222.814087 475.587938 
L 229.547796 475.199653 
L 236.281505 474.730289 
L 243.015214 474.27722 
L 249.748922 476.208004 
L 256.482631 475.651297 
L 263.21634 475.180006 
L 269.950049 474.859224 
L 276.683758 474.384957 
L 283.417466 473.83808 
L 290.151175 473.108325 
L 296.884884 472.477967 
L 303.618593 471.763532 
L 310.352301 470.996364 
L 317.08601 470.023452 
L 323.819719 468.890153 
L 330.553428 467.819221 
L 337.287136 466.822188 
L 344.020845 465.615341 
L 350.754554 461.881534 
L 357.488263 460.715658 
L 364.221972 459.942698 
L 370.95568 458.952114 
L 377.689389 458.102245 
L 384.423098 457.373647 
L 391.156807 456.53697 
L 397.890515 455.722955 
L 404.624224 454.892957 
L 411.357933 454.388988 
L 418.091642 453.792899 
L 424.82535 453.515183 
L 431.559059 453.118744 
L 438.292768 453.02925 
L 445.026477 453.52471 
L 451.760186 453.844995 
L 458.493894 454.035976 
L 465.227603 453.934869 
L 471.961312 454.045354 
L 478.695021 454.148789 
L 485.428729 454.178503 
L 492.162438 454.620499 
L 498.896147 455.01924 
L 505.629856 455.375209 
L 512.363564 455.475274 
L 519.097273 455.716757 
L 525.830982 455.724664 
L 532.564691 456.027205 
L 539.2984 456.080718 
L 546.032108 456.051269 
L 552.765817 456.13135 
L 559.499526 456.138177 
L 566.233235 456.217309 
L 572.966943 456.325467 
L 579.700652 456.244326 
L 586.434361 456.326135 
L 593.16807 456.129186 
L 599.901778 455.897104 
L 606.635487 455.813071 
L 613.369196 455.708509 
L 620.102905 455.893915 
L 626.836614 456.058007 
L 633.570322 456.175017 
L 640.304031 456.442572 
L 647.03774 456.674044 
L 653.771449 456.967686 
L 660.505157 457.558604 
L 667.238866 458.00287 
L 673.972575 458.274283 
L 680.706284 458.808608 
L 687.439992 459.473135 
L 694.173701 460.263163 
L 700.90741 460.950448 
L 707.641119 461.72906 
L 714.374828 462.819469 
L 721.108536 463.816952 
L 727.842245 464.968836 
L 734.575954 466.048173 
L 741.309663 466.788921 
L 748.043371 467.499786 
L 754.77708 468.411495 
L 761.510789 469.355445 
L 768.244498 470.253728 
L 774.978206 471.283676 
L 781.711915 472.352199 
L 788.445624 473.01819 
L 795.179333 473.632016 
L 801.913042 474.571588 
L 808.64675 475.372433 
L 815.380459 476.19951 
L 822.114168 477.043753 
L 828.847877 477.940341 
L 835.581585 478.788043 
L 842.315294 479.806859 
L 849.049003 480.8029 
L 855.782712 481.490184 
L 862.51642 482.059616 
" style="fill:none;stroke:#9ecae1;stroke-dasharray:5.55,2.4;stroke-dashoffset:0;stroke-width:1.5;"/>
   </g>
   <g id="line2d_38">
    <path clip-path="url(#p5ddf505eee)" d="M 101.60733 451.71088 
L 108.341038 446.664689 
L 115.074747 445.138367 
L 121.808456 443.619093 
L 128.542165 442.243491 
L 135.275873 440.619184 
L 142.009582 439.161142 
L 148.743291 437.437503 
L 155.477 435.558196 
L 162.210708 433.823378 
L 168.944417 432.07092 
L 175.678126 429.988825 
L 182.411835 428.05251 
L 189.145544 426.585602 
L 195.879252 425.187133 
L 202.612961 423.889454 
L 209.34667 426.621252 
L 216.080379 425.847792 
L 222.814087 425.180647 
L 229.547796 424.306819 
L 236.281505 423.454172 
L 243.015214 422.495436 
L 249.748922 418.656382 
L 256.482631 418.272206 
L 263.21634 417.786259 
L 269.950049 416.733325 
L 276.683758 416.017435 
L 283.417466 415.067364 
L 290.151175 413.883143 
L 296.884884 412.927875 
L 303.618593 412.010334 
L 310.352301 411.022738 
L 317.08601 409.867365 
L 323.819719 408.629324 
L 330.553428 407.70517 
L 337.287136 406.579622 
L 344.020845 405.522436 
L 350.754554 407.592246 
L 357.488263 406.511337 
L 364.221972 405.326691 
L 370.95568 404.496284 
L 377.689389 403.729676 
L 384.423098 402.909352 
L 391.156807 402.378178 
L 397.890515 401.865008 
L 404.624224 401.358005 
L 411.357933 400.262353 
L 418.091642 399.05932 
L 424.82535 398.012857 
L 431.559059 396.894666 
L 438.292768 396.313229 
L 445.026477 395.709284 
L 451.760186 395.033617 
L 458.493894 394.362523 
L 465.227603 393.61113 
L 471.961312 393.102097 
L 478.695021 392.4937 
L 485.428729 391.963686 
L 492.162438 391.470936 
L 498.896147 390.907812 
L 505.629856 390.203433 
L 512.363564 390.004971 
L 519.097273 390.017442 
L 525.830982 390.043447 
L 532.564691 389.840236 
L 539.2984 389.389877 
L 546.032108 388.788286 
L 552.765817 388.320324 
L 559.499526 387.782214 
L 566.233235 387.430279 
L 572.966943 387.006481 
L 579.700652 386.531915 
L 586.434361 386.117301 
L 593.16807 385.566576 
L 599.901778 384.831177 
L 606.635487 384.147902 
L 613.369196 383.450685 
L 620.102905 382.821715 
L 626.836614 381.921207 
L 633.570322 381.358823 
L 640.304031 381.071627 
L 647.03774 380.91592 
L 653.771449 380.614348 
L 660.505157 380.512912 
L 667.238866 380.331295 
L 673.972575 380.135401 
L 680.706284 380.186392 
L 687.439992 380.33398 
L 694.173701 380.420372 
L 700.90741 380.6665 
L 707.641119 381.073183 
L 714.374828 381.686412 
L 721.108536 382.169139 
L 727.842245 382.923544 
L 734.575954 383.63408 
L 741.309663 384.107196 
L 748.043371 384.586856 
L 754.77708 385.18866 
L 761.510789 385.337982 
L 768.244498 385.759156 
L 774.978206 385.837555 
L 781.711915 385.763351 
L 788.445624 385.435687 
L 795.179333 385.100926 
L 801.913042 384.835259 
L 808.64675 384.399228 
L 815.380459 384.15113 
L 822.114168 383.800336 
L 828.847877 383.560617 
L 835.581585 382.774769 
L 842.315294 382.095311 
L 849.049003 381.483817 
L 855.782712 380.700004 
L 862.51642 380.429933 
" style="fill:none;stroke:#9ecae1;stroke-dasharray:5.55,2.4;stroke-dashoffset:0;stroke-width:1.5;"/>
   </g>
   <g id="line2d_39">
    <path clip-path="url(#p5ddf505eee)" d="M 101.60733 469.078131 
L 108.341038 467.656129 
L 115.074747 466.634938 
L 121.808456 465.65129 
L 128.542165 464.691225 
L 135.275873 463.542001 
L 142.009582 462.419852 
L 148.743291 461.236392 
L 155.477 459.978023 
L 162.210708 458.800485 
L 168.944417 457.538377 
L 175.678126 456.142578 
L 182.411835 454.77866 
L 189.145544 453.698021 
L 195.879252 452.673036 
L 202.612961 451.750372 
L 209.34667 451.512762 
L 216.080379 450.911349 
L 222.814087 450.384293 
L 229.547796 449.753236 
L 236.281505 449.092231 
L 243.015214 448.386328 
L 249.748922 447.432193 
L 256.482631 446.961751 
L 263.21634 446.483132 
L 269.950049 445.796274 
L 276.683758 445.201196 
L 283.417466 444.452722 
L 290.151175 443.495734 
L 296.884884 442.702921 
L 303.618593 441.886933 
L 310.352301 441.009551 
L 317.08601 439.945408 
L 323.819719 438.759739 
L 330.553428 437.762195 
L 337.287136 436.700905 
L 344.020845 435.568889 
L 350.754554 434.73689 
L 357.488263 433.613497 
L 364.221972 432.634694 
L 370.95568 431.724199 
L 377.689389 430.915961 
L 384.423098 430.141499 
L 391.156807 429.457574 
L 397.890515 428.793981 
L 404.624224 428.125481 
L 411.357933 427.32567 
L 418.091642 426.42611 
L 424.82535 425.76402 
L 431.559059 425.006705 
L 438.292768 424.67124 
L 445.026477 424.616997 
L 451.760186 424.439306 
L 458.493894 424.199249 
L 465.227603 423.773 
L 471.961312 423.573725 
L 478.695021 423.321245 
L 485.428729 423.071095 
L 492.162438 423.045717 
L 498.896147 422.963526 
L 505.629856 422.789321 
L 512.363564 422.740123 
L 519.097273 422.8671 
L 525.830982 422.884056 
L 532.564691 422.933721 
L 539.2984 422.735297 
L 546.032108 422.419778 
L 552.765817 422.225837 
L 559.499526 421.960195 
L 566.233235 421.823794 
L 572.966943 421.665974 
L 579.700652 421.38812 
L 586.434361 421.221718 
L 593.16807 420.847881 
L 599.901778 420.364141 
L 606.635487 419.980487 
L 613.369196 419.579597 
L 620.102905 419.357815 
L 626.836614 418.989607 
L 633.570322 418.76692 
L 640.304031 418.7571 
L 647.03774 418.794982 
L 653.771449 418.791017 
L 660.505157 419.035758 
L 667.238866 419.167083 
L 673.972575 419.204842 
L 680.706284 419.4975 
L 687.439992 419.903558 
L 694.173701 420.341767 
L 700.90741 420.808474 
L 707.641119 421.401121 
L 714.374828 422.25294 
L 721.108536 422.993046 
L 727.842245 423.94619 
L 734.575954 424.841126 
L 741.309663 425.448059 
L 748.043371 426.043321 
L 754.77708 426.800078 
L 761.510789 427.346713 
L 768.244498 428.006442 
L 774.978206 428.560615 
L 781.711915 429.057775 
L 788.445624 429.226939 
L 795.179333 429.366471 
L 801.913042 429.703423 
L 808.64675 429.88583 
L 815.380459 430.17532 
L 822.114168 430.422045 
L 828.847877 430.750479 
L 835.581585 430.781406 
L 842.315294 430.951085 
L 849.049003 431.143358 
L 855.782712 431.095094 
L 862.51642 431.244774 
" style="fill:none;stroke:#4292c6;stroke-linecap:square;stroke-width:1.5;"/>
   </g>
   <g id="patch_8">
    <path d="M 63.561875 500.3 
L 63.561875 373.131169 
" style="fill:none;stroke:#000000;stroke-linecap:square;stroke-linejoin:miter;stroke-width:0.8;"/>
   </g>
   <g id="patch_9">
    <path d="M 63.561875 500.3 
L 900.561875 500.3 
" style="fill:none;stroke:#000000;stroke-linecap:square;stroke-linejoin:miter;stroke-width:0.8;"/>
   </g>
  </g>
 </g>
 <defs>
  <clipPath id="pc8f92a39cc">
   <rect height="317.922078" width="837" x="63.561875" y="10.7"/>
  </clipPath>
  <clipPath id="p5ddf505eee">
   <rect height="127.168831" width="837" x="63.561875" y="373.131169"/>
  </clipPath>
 </defs>
</svg>
