<svg id="Layer_1" data-name="Layer 1" xmlns="http://www.w3.org/2000/svg" viewBox="0 0 350 220"><defs><style>.cls-1{font-size:11px;font-family:Roboto-Regular, Roboto;}.cls-2{letter-spacing:-0.02em;}.cls-3{letter-spacing:-0.01em;}.cls-4{letter-spacing:0.01em;}.cls-5{letter-spacing:0.01em;}.cls-6{letter-spacing:-0.01em;}.cls-7{letter-spacing:-0.01em;}.cls-8{letter-spacing:-0.02em;}.cls-9{letter-spacing:-0.03em;}.cls-10{letter-spacing:-0.01em;}.cls-11{letter-spacing:0em;}.cls-12{letter-spacing:0.01em;}.cls-13{letter-spacing:0.01em;}.cls-14{letter-spacing:-0.01em;}</style></defs><title>RIPArtboard 1</title><text class="cls-1"><tspan x="11" y="36.45">1. Question: “Return data after ajax call success?”</tspan><tspan x="11" y="49.65" xml:space="preserve">    Recommended tags: </tspan><tspan class="cls-2" x="125.47" y="49.65">‘</tspan><tspan x="127.4" y="49.65">ajax’, ‘j</tspan><tspan class="cls-3" x="159.34" y="49.65">av</tspan><tspan x="170.49" y="49.65">ascript’, ‘jque</tspan><tspan class="cls-4" x="234.12" y="49.65">r</tspan><tspan class="cls-5" x="237.93" y="49.65">y</tspan><tspan x="243.22" y="49.65">’, </tspan><tspan class="cls-6" x="250.3" y="49.65">‘</tspan><tspan x="252.39" y="49.65">ph</tspan><tspan class="cls-7" x="264.62" y="49.65">p</tspan><tspan x="270.64" y="49.65">’</tspan><tspan x="11" y="89.25">2. Question: “Bootst</tspan><tspan class="cls-8" x="108.06" y="89.25">r</tspan><tspan x="111.56" y="89.25">ap div e</tspan><tspan class="cls-6" x="149.19" y="89.25">x</tspan><tspan x="154.54" y="89.25">ceeds its content on image galle</tspan><tspan class="cls-4" x="312.52" y="89.25">r</tspan><tspan x="316.34" y="89.25">y?”</tspan><tspan x="11" y="102.45" xml:space="preserve">    Recommended tags: </tspan><tspan class="cls-9" x="125.47" y="102.45">‘</tspan><tspan x="127.35" y="102.45">css’, ‘html’, ‘j</tspan><tspan class="cls-10" x="187.59" y="102.45">av</tspan><tspan class="cls-11" x="198.74" y="102.45">ascript’, ‘jque</tspan><tspan class="cls-12" x="262.36" y="102.45">r</tspan><tspan class="cls-13" x="266.18" y="102.45">y</tspan><tspan x="271.47" y="102.45">’, ‘bootst</tspan><tspan class="cls-8" x="312.32" y="102.45">r</tspan><tspan x="315.83" y="102.45">a</tspan><tspan class="cls-7" x="321.82" y="102.45">p</tspan><tspan x="327.83" y="102.45">’</tspan><tspan x="11" y="142.05">3. Question: “Use .dll </tspan><tspan class="cls-6" x="114.32" y="142.05">t</tspan><tspan x="117.8" y="142.05">o s</tspan><tspan class="cls-6" x="132.47" y="142.05">t</tspan><tspan x="135.96" y="142.05">o</tspan><tspan class="cls-14" x="142.23" y="142.05">r</tspan><tspan x="145.85" y="142.05">e other .dlls or .libs?”</tspan><tspan x="11" y="155.25" xml:space="preserve">    Recommended tags: </tspan><tspan class="cls-9" x="125.47" y="155.25">‘</tspan><tspan x="127.35" y="155.25">c#’, </tspan><tspan class="cls-9" x="146.96" y="155.25">‘</tspan><tspan x="148.84" y="155.25">c++’</tspan></text></svg>